<?xml version="1.0" encoding="UTF-8" standalone="no"?>
<!DOCTYPE svg PUBLIC "-//W3C//DTD SVG 1.1//EN"
 "http://www.w3.org/Graphics/SVG/1.1/DTD/svg11.dtd">
<!-- Generated by graphviz version 12.1.2 (20240928.0832)
 -->
<!-- Title: public.chat_messages Pages: 1 -->
<svg width="3296pt" height="869pt"
 viewBox="0.00 0.00 3296.02 869.20" xmlns="http://www.w3.org/2000/svg" xmlns:xlink="http://www.w3.org/1999/xlink">
<g id="graph0" class="graph" transform="scale(1 1) rotate(0) translate(4 865.2)">
<title>public.chat_messages</title>
<polygon fill="white" stroke="none" points="-4,4 -4,-865.2 3292.02,-865.2 3292.02,4 -4,4"/>
<!-- public.chat_messages -->
<g id="node1" class="node">
<title>public.chat_messages</title>
<polygon fill="#efefef" stroke="none" points="46.2,-629.4 46.2,-675.4 341.14,-675.4 341.14,-629.4 46.2,-629.4"/>
<polygon fill="none" stroke="black" points="46.2,-629.4 46.2,-675.4 341.14,-675.4 341.14,-629.4 46.2,-629.4"/>
<text text-anchor="start" x="53.2" y="-653.2" font-family="Arial Bold" font-size="18.00">public.chat_messages</text>
<text text-anchor="start" x="209.65" y="-653.2" font-family="Arial" font-size="14.00">    </text>
<text text-anchor="start" x="240.77" y="-653.2" font-family="Arial" font-size="14.00" fill="#666666">[BASE TABLE]</text>
<text text-anchor="start" x="82.82" y="-638.8" font-family="Arial" font-size="14.00" fill="#333333">チャットメッセージと返信先メッセージ。</text>
<polygon fill="none" stroke="black" points="46.2,-598.6 46.2,-629.4 341.14,-629.4 341.14,-598.6 46.2,-598.6"/>
<text text-anchor="start" x="53.2" y="-610.8" font-family="Arial" font-size="14.00">id </text>
<text text-anchor="start" x="67.99" y="-610.8" font-family="Arial" font-size="14.00" fill="#666666">[uuid]</text>
<polygon fill="none" stroke="black" points="46.2,-567.8 46.2,-598.6 341.14,-598.6 341.14,-567.8 46.2,-567.8"/>
<text text-anchor="start" x="53.2" y="-580" font-family="Arial" font-size="14.00">reply_to </text>
<text text-anchor="start" x="106.9" y="-580" font-family="Arial" font-size="14.00" fill="#666666">[uuid]</text>
<polygon fill="none" stroke="black" points="46.2,-537 46.2,-567.8 341.14,-567.8 341.14,-537 46.2,-537"/>
<text text-anchor="start" x="53.2" y="-549.2" font-family="Arial" font-size="14.00">room_id </text>
<text text-anchor="start" x="107.67" y="-549.2" font-family="Arial" font-size="14.00" fill="#666666">[uuid]</text>
<polygon fill="none" stroke="black" points="46.2,-506.2 46.2,-537 341.14,-537 341.14,-506.2 46.2,-506.2"/>
<text text-anchor="start" x="53.2" y="-518.4" font-family="Arial" font-size="14.00">sender_id </text>
<text text-anchor="start" x="118.58" y="-518.4" font-family="Arial" font-size="14.00" fill="#666666">[uuid]</text>
<polygon fill="none" stroke="black" stroke-width="3" points="44.7,-504.7 44.7,-676.9 342.64,-676.9 342.64,-504.7 44.7,-504.7"/>
</g>
<!-- public.chat_messages&#45;&gt;public.chat_messages -->
<g id="edge1" class="edge">
<title>public.chat_messages:reply_to&#45;&gt;public.chat_messages:id</title>
<path fill="none" stroke="black" d="M195.82,-608.75C202.6,-704.59 201.89,-861.2 193.67,-861.2 185.16,-861.2 184.7,-720.84 192.28,-629.35"/>
<polygon fill="black" stroke="black" points="195.82,-608.83 199.56,-598.52 195.42,-603.51 195.09,-599.19 195.09,-599.19 195.09,-599.19 195.42,-603.51 190.58,-599.2 195.82,-608.83"/>
</g>
<!-- public.chat_rooms -->
<g id="node2" class="node">
<title>public.chat_rooms</title>
<polygon fill="#efefef" stroke="none" points="230.14,-319.4 230.14,-365.4 559.2,-365.4 559.2,-319.4 230.14,-319.4"/>
<polygon fill="none" stroke="black" points="230.14,-319.4 230.14,-365.4 559.2,-365.4 559.2,-319.4 230.14,-319.4"/>
<text text-anchor="start" x="265.69" y="-343.2" font-family="Arial Bold" font-size="18.00">public.chat_rooms</text>
<text text-anchor="start" x="399.16" y="-343.2" font-family="Arial" font-size="14.00">    </text>
<text text-anchor="start" x="430.28" y="-343.2" font-family="Arial" font-size="14.00" fill="#666666">[BASE TABLE]</text>
<text text-anchor="start" x="237.14" y="-328.8" font-family="Arial" font-size="14.00" fill="#333333">グローバル、ロビー、卓、プライベートのチャットルーム。</text>
<polygon fill="none" stroke="black" points="230.14,-288.6 230.14,-319.4 559.2,-319.4 559.2,-288.6 230.14,-288.6"/>
<text text-anchor="start" x="237.14" y="-300.8" font-family="Arial" font-size="14.00">id </text>
<text text-anchor="start" x="251.93" y="-300.8" font-family="Arial" font-size="14.00" fill="#666666">[uuid]</text>
<polygon fill="none" stroke="black" points="230.14,-257.8 230.14,-288.6 559.2,-288.6 559.2,-257.8 230.14,-257.8"/>
<text text-anchor="start" x="237.14" y="-270" font-family="Arial" font-size="14.00">owner_id </text>
<text text-anchor="start" x="297.84" y="-270" font-family="Arial" font-size="14.00" fill="#666666">[uuid]</text>
</g>
<!-- public.chat_messages&#45;&gt;public.chat_rooms -->
<g id="edge2" class="edge">
<title>public.chat_messages:room_id&#45;&gt;public.chat_rooms:id</title>
<path fill="none" stroke="black" d="M352.14,-550.94C379.48,-541.75 361.35,-491.25 341.14,-460 311.62,-414.35 259.63,-454.27 230.14,-408.6 204.92,-369.54 182.65,-304 229.14,-304"/>
<polygon fill="black" stroke="black" points="352.37,-550.91 341.82,-547.9 347.09,-551.68 342.81,-552.3 342.81,-552.3 342.81,-552.3 347.09,-551.68 343.12,-556.8 352.37,-550.91"/>
</g>
<!-- public.user_profiles -->
<g id="node3" class="node">
<title>public.user_profiles</title>
<polygon fill="#efefef" stroke="none" points="922.21,-74 922.21,-120 1441.13,-120 1441.13,-74 922.21,-74"/>
<polygon fill="none" stroke="black" points="922.21,-74 922.21,-120 1441.13,-120 1441.13,-74 922.21,-74"/>
<text text-anchor="start" x="1047.7" y="-97.8" font-family="Arial Bold" font-size="18.00">public.user_profiles</text>
<text text-anchor="start" x="1191.16" y="-97.8" font-family="Arial" font-size="14.00">    </text>
<text text-anchor="start" x="1222.28" y="-97.8" font-family="Arial" font-size="14.00" fill="#666666">[BASE TABLE]</text>
<text text-anchor="start" x="929.21" y="-83.4" font-family="Arial" font-size="14.00" fill="#333333">アプリケーションで表示・集計に使うユーザープロフィール。auth.users と 1:1 で対応する。</text>
<polygon fill="none" stroke="black" points="922.21,-43.2 922.21,-74 1441.13,-74 1441.13,-43.2 922.21,-43.2"/>
<text text-anchor="start" x="929.21" y="-55.4" font-family="Arial" font-size="14.00">id </text>
<text text-anchor="start" x="944" y="-55.4" font-family="Arial" font-size="14.00" fill="#666666">[uuid]</text>
</g>
<!-- public.chat_messages&#45;&gt;public.user_profiles -->
<g id="edge3" class="edge">
<title>public.chat_messages:sender_id&#45;&gt;public.user_profiles:id</title>
<path fill="none" stroke="black" stroke-dasharray="5,2" d="M193.31,-494.83C191.24,-466.53 180.88,-456.89 177.67,-424 167.97,-324.56 113.92,-276.13 177.67,-199.2 284.96,-69.72 753.05,-58.6 921.21,-58.6"/>
<polygon fill="black" stroke="black" points="193.31,-494.87 189.16,-505.02 193.5,-500.2 193.65,-504.53 193.65,-504.53 193.65,-504.53 193.5,-500.2 198.16,-504.71 193.31,-494.87"/>
</g>
<!-- public.chat_rooms&#45;&gt;public.user_profiles -->
<g id="edge5" class="edge">
<title>public.chat_rooms:owner_id&#45;&gt;public.user_profiles:id</title>
<path fill="none" stroke="black" stroke-dasharray="5,2" d="M570.38,-271.99C598.79,-264.37 587.42,-222.65 616.67,-199.2 732.99,-105.95 772.13,-58.6 921.21,-58.6"/>
<polygon fill="black" stroke="black" points="570.46,-271.98 560,-268.69 565.17,-272.61 560.87,-273.12 560.87,-273.12 560.87,-273.12 565.17,-272.61 561.07,-277.63 570.46,-271.98"/>
</g>
<!-- public.chat_members -->
<g id="node4" class="node">
<title>public.chat_members</title>
<polygon fill="#efefef" stroke="none" points="466.2,-598.6 466.2,-644.6 759.14,-644.6 759.14,-598.6 466.2,-598.6"/>
<polygon fill="none" stroke="black" points="466.2,-598.6 466.2,-644.6 759.14,-644.6 759.14,-598.6 466.2,-598.6"/>
<text text-anchor="start" x="473.2" y="-622.4" font-family="Arial Bold" font-size="18.00">public.chat_members</text>
<text text-anchor="start" x="627.65" y="-622.4" font-family="Arial" font-size="14.00">    </text>
<text text-anchor="start" x="658.77" y="-622.4" font-family="Arial" font-size="14.00" fill="#666666">[BASE TABLE]</text>
<text text-anchor="start" x="495.98" y="-608" font-family="Arial" font-size="14.00" fill="#333333">チャットルームのメンバーシップとロール。</text>
<polygon fill="none" stroke="black" points="466.2,-567.8 466.2,-598.6 759.14,-598.6 759.14,-567.8 466.2,-567.8"/>
<text text-anchor="start" x="473.2" y="-580" font-family="Arial" font-size="14.00">room_id </text>
<text text-anchor="start" x="527.67" y="-580" font-family="Arial" font-size="14.00" fill="#666666">[uuid]</text>
<polygon fill="none" stroke="black" points="466.2,-537 466.2,-567.8 759.14,-567.8 759.14,-537 466.2,-537"/>
<text text-anchor="start" x="473.2" y="-549.2" font-family="Arial" font-size="14.00">user_id </text>
<text text-anchor="start" x="523.01" y="-549.2" font-family="Arial" font-size="14.00" fill="#666666">[uuid]</text>
</g>
<!-- public.chat_members&#45;&gt;public.chat_rooms -->
<g id="edge4" class="edge">
<title>public.chat_members:room_id&#45;&gt;public.chat_rooms:id</title>
<path fill="none" stroke="black" d="M455.01,-581.63C430.36,-572.58 451.64,-526.4 466.2,-493.8 489.07,-442.62 536.38,-459.8 559.2,-408.6 578.13,-366.14 606.69,-304 560.2,-304"/>
<polygon fill="black" stroke="black" points="454.99,-581.63 464.19,-587.6 460.26,-582.44 464.54,-583.1 464.54,-583.1 464.54,-583.1 460.26,-582.44 465.56,-578.7 454.99,-581.63"/>
</g>
<!-- public.chat_members&#45;&gt;public.user_profiles -->
<g id="edge7" class="edge">
<title>public.chat_members:user_id&#45;&gt;public.user_profiles:id</title>
<path fill="none" stroke="black" stroke-dasharray="5,2" d="M612.64,-525.63C612.28,-443.82 608.91,-258.62 649.67,-199.2 726.55,-87.13 785.31,-58.6 921.21,-58.6"/>
<polygon fill="black" stroke="black" points="612.64,-525.67 608.17,-535.68 612.66,-531 612.67,-535.33 612.67,-535.33 612.67,-535.33 612.66,-531 617.17,-535.65 612.64,-525.67"/>
</g>
<!-- public.active_room_memberships -->
<g id="node5" class="node">
<title>public.active_room_memberships</title>
<polygon fill="#efefef" stroke="none" points="702.13,-319.4 702.13,-365.4 1101.21,-365.4 1101.21,-319.4 702.13,-319.4"/>
<polygon fill="none" stroke="black" points="702.13,-319.4 702.13,-365.4 1101.21,-365.4 1101.21,-319.4 702.13,-319.4"/>
<text text-anchor="start" x="717.21" y="-343.2" font-family="Arial Bold" font-size="18.00">public.active_room_memberships</text>
<text text-anchor="start" x="961.65" y="-343.2" font-family="Arial" font-size="14.00">    </text>
<text text-anchor="start" x="992.76" y="-343.2" font-family="Arial" font-size="14.00" fill="#666666">[BASE TABLE]</text>
<text text-anchor="start" x="709.13" y="-328.8" font-family="Arial" font-size="14.00" fill="#333333">認証ユーザーが現在保持しているルーム所属のリース。二重参加を防ぐ。</text>
<polygon fill="none" stroke="black" points="702.13,-288.6 702.13,-319.4 1101.21,-319.4 1101.21,-288.6 702.13,-288.6"/>
<text text-anchor="start" x="709.13" y="-300.8" font-family="Arial" font-size="14.00">room_id </text>
<text text-anchor="start" x="763.6" y="-300.8" font-family="Arial" font-size="14.00" fill="#666666">[uuid]</text>
<polygon fill="none" stroke="black" points="702.13,-257.8 702.13,-288.6 1101.21,-288.6 1101.21,-257.8 702.13,-257.8"/>
<text text-anchor="start" x="709.13" y="-270" font-family="Arial" font-size="14.00">user_id </text>
<text text-anchor="start" x="758.94" y="-270" font-family="Arial" font-size="14.00" fill="#666666">[uuid]</text>
</g>
<!-- public.active_room_memberships&#45;&gt;public.user_profiles -->
<g id="edge6" class="edge">
<title>public.active_room_memberships:user_id&#45;&gt;public.user_profiles:id</title>
<path fill="none" stroke="black" d="M1112.17,-270.38C1124.46,-261.22 1114.46,-231.88 1101.21,-214.6 1050.85,-148.92 972.33,-229.07 922.21,-163.2 894.06,-126.2 874.72,-58.6 921.21,-58.6"/>
<polygon fill="black" stroke="black" points="1112.15,-270.38 1101.31,-268.78 1107.02,-271.84 1102.85,-273.02 1102.85,-273.02 1102.85,-273.02 1107.02,-271.84 1103.76,-277.44 1112.15,-270.38"/>
</g>
<!-- public.push_receipts -->
<g id="node6" class="node">
<title>public.push_receipts</title>
<polygon fill="#efefef" stroke="none" points="1205.15,-319.4 1205.15,-365.4 1720.2,-365.4 1720.2,-319.4 1205.15,-319.4"/>
<polygon fill="none" stroke="black" points="1205.15,-319.4 1205.15,-365.4 1720.2,-365.4 1720.2,-319.4 1205.15,-319.4"/>
<text text-anchor="start" x="1326.19" y="-343.2" font-family="Arial Bold" font-size="18.00">public.push_receipts</text>
<text text-anchor="start" x="1474.66" y="-343.2" font-family="Arial" font-size="14.00">    </text>
<text text-anchor="start" x="1505.78" y="-343.2" font-family="Arial" font-size="14.00" fill="#666666">[BASE TABLE]</text>
<text text-anchor="start" x="1212.15" y="-328.8" font-family="Arial" font-size="14.00" fill="#333333">Push 配信結果の再試行キュー。処理中レコードは worker_id と locked_until で排他する。</text>
<polygon fill="none" stroke="black" points="1205.15,-288.6 1205.15,-319.4 1720.2,-319.4 1720.2,-288.6 1205.15,-288.6"/>
<text text-anchor="start" x="1212.15" y="-300.8" font-family="Arial" font-size="14.00">push_token_id </text>
<text text-anchor="start" x="1307.11" y="-300.8" font-family="Arial" font-size="14.00" fill="#666666">[uuid]</text>
<polygon fill="none" stroke="black" points="1205.15,-257.8 1205.15,-288.6 1720.2,-288.6 1720.2,-257.8 1205.15,-257.8"/>
<text text-anchor="start" x="1212.15" y="-270" font-family="Arial" font-size="14.00">user_id </text>
<text text-anchor="start" x="1261.95" y="-270" font-family="Arial" font-size="14.00" fill="#666666">[uuid]</text>
</g>
<!-- public.push_receipts&#45;&gt;public.user_profiles -->
<g id="edge8" class="edge">
<title>public.push_receipts:user_id&#45;&gt;public.user_profiles:id</title>
<path fill="none" stroke="black" stroke-dasharray="5,2" d="M1194.15,-270.35C1181.72,-261.07 1191.34,-231.44 1205.15,-214.6 1273.2,-131.59 1373.39,-246.47 1441.13,-163.2 1470.47,-127.14 1488.62,-58.6 1442.13,-58.6"/>
<polygon fill="black" stroke="black" points="1194.21,-270.36 1202.59,-277.44 1199.34,-271.83 1203.5,-273.02 1203.5,-273.02 1203.5,-273.02 1199.34,-271.83 1205.06,-268.78 1194.21,-270.36"/>
</g>
<!-- public.push_tokens -->
<g id="node7" class="node">
<title>public.push_tokens</title>
<polygon fill="#efefef" stroke="none" points="1824.61,-319.4 1824.61,-365.4 2244.73,-365.4 2244.73,-319.4 1824.61,-319.4"/>
<polygon fill="none" stroke="black" points="1824.61,-319.4 1824.61,-365.4 2244.73,-365.4 2244.73,-319.4 1824.61,-319.4"/>
<text text-anchor="start" x="1902.68" y="-343.2" font-family="Arial Bold" font-size="18.00">public.push_tokens</text>
<text text-anchor="start" x="2042.17" y="-343.2" font-family="Arial" font-size="14.00">    </text>
<text text-anchor="start" x="2073.29" y="-343.2" font-family="Arial" font-size="14.00" fill="#666666">[BASE TABLE]</text>
<text text-anchor="start" x="1831.61" y="-328.8" font-family="Arial" font-size="14.00" fill="#333333">モバイル端末ごとの Expo Push Token。サービスロールだけが操作する。</text>
<polygon fill="none" stroke="black" points="1824.61,-288.6 1824.61,-319.4 2244.73,-319.4 2244.73,-288.6 1824.61,-288.6"/>
<text text-anchor="start" x="1831.61" y="-300.8" font-family="Arial" font-size="14.00">id </text>
<text text-anchor="start" x="1846.4" y="-300.8" font-family="Arial" font-size="14.00" fill="#666666">[uuid]</text>
<polygon fill="none" stroke="black" points="1824.61,-257.8 1824.61,-288.6 2244.73,-288.6 2244.73,-257.8 1824.61,-257.8"/>
<text text-anchor="start" x="1831.61" y="-270" font-family="Arial" font-size="14.00">user_id </text>
<text text-anchor="start" x="1881.42" y="-270" font-family="Arial" font-size="14.00" fill="#666666">[uuid]</text>
</g>
<!-- public.push_tokens&#45;&gt;public.user_profiles -->
<g id="edge9" class="edge">
<title>public.push_tokens:user_id&#45;&gt;public.user_profiles:id</title>
<path fill="none" stroke="black" stroke-dasharray="5,2" d="M1813.52,-271.87C1787.09,-263.9 1800.57,-222 1772.67,-199.2 1649.04,-98.19 1601.78,-58.6 1442.13,-58.6"/>
<polygon fill="black" stroke="black" points="1813.36,-271.85 1822.69,-277.62 1818.65,-272.55 1822.95,-273.11 1822.95,-273.11 1822.95,-273.11 1818.65,-272.55 1823.87,-268.69 1813.36,-271.85"/>
</g>
<!-- public.room_membership_events -->
<g id="node8" class="node">
<title>public.room_membership_events</title>
<polygon fill="#efefef" stroke="none" points="2349.2,-334.8 2349.2,-380.8 2728.14,-380.8 2728.14,-334.8 2349.2,-334.8"/>
<polygon fill="none" stroke="black" points="2349.2,-334.8 2349.2,-380.8 2728.14,-380.8 2728.14,-334.8 2349.2,-334.8"/>
<text text-anchor="start" x="2356.2" y="-358.6" font-family="Arial Bold" font-size="18.00">public.room_membership_events</text>
<text text-anchor="start" x="2596.65" y="-358.6" font-family="Arial" font-size="14.00">    </text>
<text text-anchor="start" x="2627.77" y="-358.6" font-family="Arial" font-size="14.00" fill="#666666">[BASE TABLE]</text>
<text text-anchor="start" x="2404.48" y="-344.2" font-family="Arial" font-size="14.00" fill="#333333">ルーム所属リースの遷移を追跡する監査イベント。</text>
<polygon fill="none" stroke="black" points="2349.2,-304 2349.2,-334.8 2728.14,-334.8 2728.14,-304 2349.2,-304"/>
<text text-anchor="start" x="2356.2" y="-316.2" font-family="Arial" font-size="14.00">from_room_id </text>
<text text-anchor="start" x="2446.46" y="-316.2" font-family="Arial" font-size="14.00" fill="#666666">[uuid]</text>
<polygon fill="none" stroke="black" points="2349.2,-273.2 2349.2,-304 2728.14,-304 2728.14,-273.2 2349.2,-273.2"/>
<text text-anchor="start" x="2356.2" y="-285.4" font-family="Arial" font-size="14.00">to_room_id </text>
<text text-anchor="start" x="2430.13" y="-285.4" font-family="Arial" font-size="14.00" fill="#666666">[uuid]</text>
<polygon fill="none" stroke="black" points="2349.2,-242.4 2349.2,-273.2 2728.14,-273.2 2728.14,-242.4 2349.2,-242.4"/>
<text text-anchor="start" x="2356.2" y="-254.6" font-family="Arial" font-size="14.00">user_id </text>
<text text-anchor="start" x="2406.01" y="-254.6" font-family="Arial" font-size="14.00" fill="#666666">[uuid]</text>
</g>
<!-- public.room_membership_events&#45;&gt;public.user_profiles -->
<g id="edge10" class="edge">
<title>public.room_membership_events:user_id&#45;&gt;public.user_profiles:id</title>
<path fill="none" stroke="black" d="M2338.14,-256.29C2316.01,-248.65 2323.57,-214.11 2296.67,-199.2 2128.36,-105.87 1634.58,-58.6 1442.13,-58.6"/>
<polygon fill="black" stroke="black" points="2337.98,-256.27 2347.2,-262.2 2343.26,-257.06 2347.54,-257.7 2347.54,-257.7 2347.54,-257.7 2343.26,-257.06 2348.54,-253.3 2337.98,-256.27"/>
</g>
<!-- public.room_players -->
<g id="node9" class="node">
<title>public.room_players</title>
<polygon fill="#efefef" stroke="none" points="2832.53,-319.4 2832.53,-365.4 3244.82,-365.4 3244.82,-319.4 2832.53,-319.4"/>
<polygon fill="none" stroke="black" points="2832.53,-319.4 2832.53,-365.4 3244.82,-365.4 3244.82,-319.4 2832.53,-319.4"/>
<text text-anchor="start" x="2902.19" y="-343.2" font-family="Arial Bold" font-size="18.00">public.room_players</text>
<text text-anchor="start" x="3050.66" y="-343.2" font-family="Arial" font-size="14.00">    </text>
<text text-anchor="start" x="3081.78" y="-343.2" font-family="Arial" font-size="14.00" fill="#666666">[BASE TABLE]</text>
<text text-anchor="start" x="2839.53" y="-328.8" font-family="Arial" font-size="14.00" fill="#333333">ルーム内の座席、チーム、COM 状態、参加者識別子を保持するロスター。</text>
<polygon fill="none" stroke="black" points="2832.53,-288.6 2832.53,-319.4 3244.82,-319.4 3244.82,-288.6 2832.53,-288.6"/>
<text text-anchor="start" x="2839.53" y="-300.8" font-family="Arial" font-size="14.00">room_id </text>
<text text-anchor="start" x="2894" y="-300.8" font-family="Arial" font-size="14.00" fill="#666666">[uuid]</text>
<polygon fill="none" stroke="black" points="2832.53,-257.8 2832.53,-288.6 3244.82,-288.6 3244.82,-257.8 2832.53,-257.8"/>
<text text-anchor="start" x="2839.53" y="-270" font-family="Arial" font-size="14.00">user_id </text>
<text text-anchor="start" x="2889.33" y="-270" font-family="Arial" font-size="14.00" fill="#666666">[uuid]</text>
</g>
<!-- public.room_players&#45;&gt;public.user_profiles -->
<g id="edge11" class="edge">
<title>public.room_players:user_id&#45;&gt;public.user_profiles:id</title>
<path fill="none" stroke="black" d="M2821.53,-271.75C2795.63,-263.05 2811.62,-217.61 2780.67,-199.2 2652.15,-122.74 1591.67,-58.6 1442.13,-58.6"/>
<polygon fill="black" stroke="black" points="2821.3,-271.71 2830.55,-277.61 2826.58,-272.48 2830.87,-273.1 2830.87,-273.1 2830.87,-273.1 2826.58,-272.48 2831.84,-268.7 2821.3,-271.71"/>
</g>
</g>
</svg>
