<?xml version="1.0" encoding="UTF-8" standalone="no"?>
<!DOCTYPE svg PUBLIC "-//W3C//DTD SVG 1.1//EN"
 "http://www.w3.org/Graphics/SVG/1.1/DTD/svg11.dtd">
<!-- Generated by graphviz version 12.1.2 (20240928.0832)
 -->
<!-- Title: public.push_receipts Pages: 1 -->
<svg width="3285pt" height="1715pt"
 viewBox="0.00 0.00 3284.61 1715.20" xmlns="http://www.w3.org/2000/svg" xmlns:xlink="http://www.w3.org/1999/xlink">
<g id="graph0" class="graph" transform="scale(1 1) rotate(0) translate(4 1711.2)">
<title>public.push_receipts</title>
<polygon fill="white" stroke="none" points="-4,4 -4,-1711.2 3280.61,-1711.2 3280.61,4 -4,4"/>
<!-- public.push_receipts -->
<g id="node1" class="node">
<title>public.push_receipts</title>
<polygon fill="#efefef" stroke="none" points="135.74,-1615 135.74,-1661 650.78,-1661 650.78,-1615 135.74,-1615"/>
<polygon fill="none" stroke="black" points="135.74,-1615 135.74,-1661 650.78,-1661 650.78,-1615 135.74,-1615"/>
<text text-anchor="start" x="256.78" y="-1638.8" font-family="Arial Bold" font-size="18.00">public.push_receipts</text>
<text text-anchor="start" x="405.25" y="-1638.8" font-family="Arial" font-size="14.00">    </text>
<text text-anchor="start" x="436.37" y="-1638.8" font-family="Arial" font-size="14.00" fill="#666666">[BASE TABLE]</text>
<text text-anchor="start" x="142.74" y="-1624.4" font-family="Arial" font-size="14.00" fill="#333333">Push 配信結果の再試行キュー。処理中レコードは worker_id と locked_until で排他する。</text>
<polygon fill="none" stroke="black" points="135.74,-1584.2 135.74,-1615 650.78,-1615 650.78,-1584.2 135.74,-1584.2"/>
<text text-anchor="start" x="142.74" y="-1596.4" font-family="Arial" font-size="14.00">attempt_count </text>
<text text-anchor="start" x="235.35" y="-1596.4" font-family="Arial" font-size="14.00" fill="#666666">[integer]</text>
<polygon fill="none" stroke="black" points="135.74,-1553.4 135.74,-1584.2 650.78,-1584.2 650.78,-1553.4 135.74,-1553.4"/>
<text text-anchor="start" x="142.74" y="-1565.6" font-family="Arial" font-size="14.00">created_at </text>
<text text-anchor="start" x="212.79" y="-1565.6" font-family="Arial" font-size="14.00" fill="#666666">[timestamp with time zone]</text>
<polygon fill="none" stroke="black" points="135.74,-1522.6 135.74,-1553.4 650.78,-1553.4 650.78,-1522.6 135.74,-1522.6"/>
<text text-anchor="start" x="142.74" y="-1534.8" font-family="Arial" font-size="14.00">device_id </text>
<text text-anchor="start" x="205.78" y="-1534.8" font-family="Arial" font-size="14.00" fill="#666666">[text]</text>
<polygon fill="none" stroke="black" points="135.74,-1491.8 135.74,-1522.6 650.78,-1522.6 650.78,-1491.8 135.74,-1491.8"/>
<text text-anchor="start" x="142.74" y="-1504" font-family="Arial" font-size="14.00">expo_push_token </text>
<text text-anchor="start" x="257.16" y="-1504" font-family="Arial" font-size="14.00" fill="#666666">[text]</text>
<polygon fill="none" stroke="black" points="135.74,-1461 135.74,-1491.8 650.78,-1491.8 650.78,-1461 135.74,-1461"/>
<text text-anchor="start" x="142.74" y="-1473.2" font-family="Arial" font-size="14.00">expo_receipt_id </text>
<text text-anchor="start" x="245.48" y="-1473.2" font-family="Arial" font-size="14.00" fill="#666666">[text]</text>
<polygon fill="none" stroke="black" points="135.74,-1430.2 135.74,-1461 650.78,-1461 650.78,-1430.2 135.74,-1430.2"/>
<text text-anchor="start" x="142.74" y="-1442.4" font-family="Arial" font-size="14.00">id </text>
<text text-anchor="start" x="157.52" y="-1442.4" font-family="Arial" font-size="14.00" fill="#666666">[uuid]</text>
<polygon fill="none" stroke="black" points="135.74,-1399.4 135.74,-1430.2 650.78,-1430.2 650.78,-1399.4 135.74,-1399.4"/>
<text text-anchor="start" x="142.74" y="-1411.6" font-family="Arial" font-size="14.00">locked_until </text>
<text text-anchor="start" x="220.57" y="-1411.6" font-family="Arial" font-size="14.00" fill="#666666">[timestamp with time zone]</text>
<polygon fill="none" stroke="black" points="135.74,-1368.6 135.74,-1399.4 650.78,-1399.4 650.78,-1368.6 135.74,-1368.6"/>
<text text-anchor="start" x="142.74" y="-1380.8" font-family="Arial" font-size="14.00">next_attempt_at </text>
<text text-anchor="start" x="247.03" y="-1380.8" font-family="Arial" font-size="14.00" fill="#666666">[timestamp with time zone]</text>
<polygon fill="none" stroke="black" points="135.74,-1337.8 135.74,-1368.6 650.78,-1368.6 650.78,-1337.8 135.74,-1337.8"/>
<text text-anchor="start" x="142.74" y="-1350" font-family="Arial" font-size="14.00">platform </text>
<text text-anchor="start" x="197.2" y="-1350" font-family="Arial" font-size="14.00" fill="#666666">[text]</text>
<polygon fill="none" stroke="black" points="135.74,-1307 135.74,-1337.8 650.78,-1337.8 650.78,-1307 135.74,-1307"/>
<text text-anchor="start" x="142.74" y="-1319.2" font-family="Arial" font-size="14.00">processed_at </text>
<text text-anchor="start" x="230.68" y="-1319.2" font-family="Arial" font-size="14.00" fill="#666666">[timestamp with time zone]</text>
<polygon fill="none" stroke="black" points="135.74,-1276.2 135.74,-1307 650.78,-1307 650.78,-1276.2 135.74,-1276.2"/>
<text text-anchor="start" x="142.74" y="-1288.4" font-family="Arial" font-size="14.00">provider_error_code </text>
<text text-anchor="start" x="272.7" y="-1288.4" font-family="Arial" font-size="14.00" fill="#666666">[text]</text>
<polygon fill="none" stroke="black" points="135.74,-1245.4 135.74,-1276.2 650.78,-1276.2 650.78,-1245.4 135.74,-1245.4"/>
<text text-anchor="start" x="142.74" y="-1257.6" font-family="Arial" font-size="14.00">push_token_id </text>
<text text-anchor="start" x="237.7" y="-1257.6" font-family="Arial" font-size="14.00" fill="#666666">[uuid]</text>
<polygon fill="none" stroke="black" points="135.74,-1214.6 135.74,-1245.4 650.78,-1245.4 650.78,-1214.6 135.74,-1214.6"/>
<text text-anchor="start" x="142.74" y="-1226.8" font-family="Arial" font-size="14.00">status </text>
<text text-anchor="start" x="183.98" y="-1226.8" font-family="Arial" font-size="14.00" fill="#666666">[text]</text>
<polygon fill="none" stroke="black" points="135.74,-1183.8 135.74,-1214.6 650.78,-1214.6 650.78,-1183.8 135.74,-1183.8"/>
<text text-anchor="start" x="142.74" y="-1196" font-family="Arial" font-size="14.00">updated_at </text>
<text text-anchor="start" x="216.7" y="-1196" font-family="Arial" font-size="14.00" fill="#666666">[timestamp with time zone]</text>
<polygon fill="none" stroke="black" points="135.74,-1153 135.74,-1183.8 650.78,-1183.8 650.78,-1153 135.74,-1153"/>
<text text-anchor="start" x="142.74" y="-1165.2" font-family="Arial" font-size="14.00">user_id </text>
<text text-anchor="start" x="192.54" y="-1165.2" font-family="Arial" font-size="14.00" fill="#666666">[uuid]</text>
<polygon fill="none" stroke="black" points="135.74,-1122.2 135.74,-1153 650.78,-1153 650.78,-1122.2 135.74,-1122.2"/>
<text text-anchor="start" x="142.74" y="-1134.4" font-family="Arial" font-size="14.00">worker_id </text>
<text text-anchor="start" x="207.32" y="-1134.4" font-family="Arial" font-size="14.00" fill="#666666">[text]</text>
<polygon fill="none" stroke="black" stroke-width="3" points="134.24,-1120.7 134.24,-1662.5 652.28,-1662.5 652.28,-1120.7 134.24,-1120.7"/>
</g>
<!-- public.push_tokens -->
<g id="node2" class="node">
<title>public.push_tokens</title>
<polygon fill="#efefef" stroke="none" points="43.2,-904.6 43.2,-950.6 463.32,-950.6 463.32,-904.6 43.2,-904.6"/>
<polygon fill="none" stroke="black" points="43.2,-904.6 43.2,-950.6 463.32,-950.6 463.32,-904.6 43.2,-904.6"/>
<text text-anchor="start" x="121.27" y="-928.4" font-family="Arial Bold" font-size="18.00">public.push_tokens</text>
<text text-anchor="start" x="260.76" y="-928.4" font-family="Arial" font-size="14.00">    </text>
<text text-anchor="start" x="291.88" y="-928.4" font-family="Arial" font-size="14.00" fill="#666666">[BASE TABLE]</text>
<text text-anchor="start" x="50.2" y="-914" font-family="Arial" font-size="14.00" fill="#333333">モバイル端末ごとの Expo Push Token。サービスロールだけが操作する。</text>
<polygon fill="none" stroke="black" points="43.2,-873.8 43.2,-904.6 463.32,-904.6 463.32,-873.8 43.2,-873.8"/>
<text text-anchor="start" x="50.2" y="-886" font-family="Arial" font-size="14.00">app_version </text>
<text text-anchor="start" x="130.37" y="-886" font-family="Arial" font-size="14.00" fill="#666666">[text]</text>
<polygon fill="none" stroke="black" points="43.2,-843 43.2,-873.8 463.32,-873.8 463.32,-843 43.2,-843"/>
<text text-anchor="start" x="50.2" y="-855.2" font-family="Arial" font-size="14.00">created_at </text>
<text text-anchor="start" x="120.25" y="-855.2" font-family="Arial" font-size="14.00" fill="#666666">[timestamp with time zone]</text>
<polygon fill="none" stroke="black" points="43.2,-812.2 43.2,-843 463.32,-843 463.32,-812.2 43.2,-812.2"/>
<text text-anchor="start" x="50.2" y="-824.4" font-family="Arial" font-size="14.00">device_id </text>
<text text-anchor="start" x="113.24" y="-824.4" font-family="Arial" font-size="14.00" fill="#666666">[text]</text>
<polygon fill="none" stroke="black" points="43.2,-781.4 43.2,-812.2 463.32,-812.2 463.32,-781.4 43.2,-781.4"/>
<text text-anchor="start" x="50.2" y="-793.6" font-family="Arial" font-size="14.00">expo_push_token </text>
<text text-anchor="start" x="164.63" y="-793.6" font-family="Arial" font-size="14.00" fill="#666666">[text]</text>
<polygon fill="none" stroke="black" points="43.2,-750.6 43.2,-781.4 463.32,-781.4 463.32,-750.6 43.2,-750.6"/>
<text text-anchor="start" x="50.2" y="-762.8" font-family="Arial" font-size="14.00">id </text>
<text text-anchor="start" x="64.99" y="-762.8" font-family="Arial" font-size="14.00" fill="#666666">[uuid]</text>
<polygon fill="none" stroke="black" points="43.2,-719.8 43.2,-750.6 463.32,-750.6 463.32,-719.8 43.2,-719.8"/>
<text text-anchor="start" x="50.2" y="-732" font-family="Arial" font-size="14.00">last_seen_at </text>
<text text-anchor="start" x="133.48" y="-732" font-family="Arial" font-size="14.00" fill="#666666">[timestamp with time zone]</text>
<polygon fill="none" stroke="black" points="43.2,-689 43.2,-719.8 463.32,-719.8 463.32,-689 43.2,-689"/>
<text text-anchor="start" x="50.2" y="-701.2" font-family="Arial" font-size="14.00">platform </text>
<text text-anchor="start" x="104.66" y="-701.2" font-family="Arial" font-size="14.00" fill="#666666">[text]</text>
<polygon fill="none" stroke="black" points="43.2,-658.2 43.2,-689 463.32,-689 463.32,-658.2 43.2,-658.2"/>
<text text-anchor="start" x="50.2" y="-670.4" font-family="Arial" font-size="14.00">updated_at </text>
<text text-anchor="start" x="124.16" y="-670.4" font-family="Arial" font-size="14.00" fill="#666666">[timestamp with time zone]</text>
<polygon fill="none" stroke="black" points="43.2,-627.4 43.2,-658.2 463.32,-658.2 463.32,-627.4 43.2,-627.4"/>
<text text-anchor="start" x="50.2" y="-639.6" font-family="Arial" font-size="14.00">user_id </text>
<text text-anchor="start" x="100.01" y="-639.6" font-family="Arial" font-size="14.00" fill="#666666">[uuid]</text>
</g>
<!-- public.push_receipts&#45;&gt;public.push_tokens -->
<g id="edge1" class="edge">
<title>public.push_receipts:push_token_id&#45;&gt;public.push_tokens:id</title>
<path fill="none" stroke="black" d="M124.35,-1260.09C55.56,-1250.12 87.32,-1137.72 135.74,-1076 228.38,-957.89 370.74,-1111.95 463.32,-993.8 494.55,-953.95 514.95,-766 464.32,-766"/>
<polygon fill="black" stroke="black" points="124.43,-1260.09 134.1,-1265.27 129.75,-1260.46 134.07,-1260.75 134.07,-1260.75 134.07,-1260.75 129.75,-1260.46 134.71,-1256.29 124.43,-1260.09"/>
</g>
<!-- public.user_profiles -->
<g id="node3" class="node">
<title>public.user_profiles</title>
<polygon fill="#efefef" stroke="none" points="1194.8,-412.8 1194.8,-458.8 1713.72,-458.8 1713.72,-412.8 1194.8,-412.8"/>
<polygon fill="none" stroke="black" points="1194.8,-412.8 1194.8,-458.8 1713.72,-458.8 1713.72,-412.8 1194.8,-412.8"/>
<text text-anchor="start" x="1320.28" y="-436.6" font-family="Arial Bold" font-size="18.00">public.user_profiles</text>
<text text-anchor="start" x="1463.75" y="-436.6" font-family="Arial" font-size="14.00">    </text>
<text text-anchor="start" x="1494.87" y="-436.6" font-family="Arial" font-size="14.00" fill="#666666">[BASE TABLE]</text>
<text text-anchor="start" x="1201.8" y="-422.2" font-family="Arial" font-size="14.00" fill="#333333">アプリケーションで表示・集計に使うユーザープロフィール。auth.users と 1:1 で対応する。</text>
<polygon fill="none" stroke="black" points="1194.8,-382 1194.8,-412.8 1713.72,-412.8 1713.72,-382 1194.8,-382"/>
<text text-anchor="start" x="1201.8" y="-394.2" font-family="Arial" font-size="14.00">account_deletion_started_at </text>
<text text-anchor="start" x="1381.6" y="-394.2" font-family="Arial" font-size="14.00" fill="#666666">[timestamp with time zone]</text>
<polygon fill="none" stroke="black" points="1194.8,-351.2 1194.8,-382 1713.72,-382 1713.72,-351.2 1194.8,-351.2"/>
<text text-anchor="start" x="1201.8" y="-363.4" font-family="Arial" font-size="14.00">avatar_url </text>
<text text-anchor="start" x="1267.95" y="-363.4" font-family="Arial" font-size="14.00" fill="#666666">[text]</text>
<polygon fill="none" stroke="black" points="1194.8,-320.4 1194.8,-351.2 1713.72,-351.2 1713.72,-320.4 1194.8,-320.4"/>
<text text-anchor="start" x="1201.8" y="-332.6" font-family="Arial" font-size="14.00">created_at </text>
<text text-anchor="start" x="1271.85" y="-332.6" font-family="Arial" font-size="14.00" fill="#666666">[timestamp with time zone]</text>
<polygon fill="none" stroke="black" points="1194.8,-289.6 1194.8,-320.4 1713.72,-320.4 1713.72,-289.6 1194.8,-289.6"/>
<text text-anchor="start" x="1201.8" y="-301.8" font-family="Arial" font-size="14.00">display_name </text>
<text text-anchor="start" x="1292.08" y="-301.8" font-family="Arial" font-size="14.00" fill="#666666">[varchar(100)]</text>
<polygon fill="none" stroke="black" points="1194.8,-258.8 1194.8,-289.6 1713.72,-289.6 1713.72,-258.8 1194.8,-258.8"/>
<text text-anchor="start" x="1201.8" y="-271" font-family="Arial" font-size="14.00">games_played </text>
<text text-anchor="start" x="1296.75" y="-271" font-family="Arial" font-size="14.00" fill="#666666">[integer]</text>
<polygon fill="none" stroke="black" points="1194.8,-228 1194.8,-258.8 1713.72,-258.8 1713.72,-228 1194.8,-228"/>
<text text-anchor="start" x="1201.8" y="-240.2" font-family="Arial" font-size="14.00">games_won </text>
<text text-anchor="start" x="1281.18" y="-240.2" font-family="Arial" font-size="14.00" fill="#666666">[integer]</text>
<polygon fill="none" stroke="black" points="1194.8,-197.2 1194.8,-228 1713.72,-228 1713.72,-197.2 1194.8,-197.2"/>
<text text-anchor="start" x="1201.8" y="-209.4" font-family="Arial" font-size="14.00">id </text>
<text text-anchor="start" x="1216.59" y="-209.4" font-family="Arial" font-size="14.00" fill="#666666">[uuid]</text>
<polygon fill="none" stroke="black" points="1194.8,-166.4 1194.8,-197.2 1713.72,-197.2 1713.72,-166.4 1194.8,-166.4"/>
<text text-anchor="start" x="1201.8" y="-178.6" font-family="Arial" font-size="14.00">last_seen_at </text>
<text text-anchor="start" x="1285.09" y="-178.6" font-family="Arial" font-size="14.00" fill="#666666">[timestamp with time zone]</text>
<polygon fill="none" stroke="black" points="1194.8,-135.6 1194.8,-166.4 1713.72,-166.4 1713.72,-135.6 1194.8,-135.6"/>
<text text-anchor="start" x="1201.8" y="-147.8" font-family="Arial" font-size="14.00">preferences </text>
<text text-anchor="start" x="1279.62" y="-147.8" font-family="Arial" font-size="14.00" fill="#666666">[jsonb]</text>
<polygon fill="none" stroke="black" points="1194.8,-104.8 1194.8,-135.6 1713.72,-135.6 1713.72,-104.8 1194.8,-104.8"/>
<text text-anchor="start" x="1201.8" y="-117" font-family="Arial" font-size="14.00">total_score </text>
<text text-anchor="start" x="1274.18" y="-117" font-family="Arial" font-size="14.00" fill="#666666">[numeric(10,1)]</text>
<polygon fill="none" stroke="black" points="1194.8,-74 1194.8,-104.8 1713.72,-104.8 1713.72,-74 1194.8,-74"/>
<text text-anchor="start" x="1201.8" y="-86.2" font-family="Arial" font-size="14.00">updated_at </text>
<text text-anchor="start" x="1275.76" y="-86.2" font-family="Arial" font-size="14.00" fill="#666666">[timestamp with time zone]</text>
<polygon fill="none" stroke="black" points="1194.8,-43.2 1194.8,-74 1713.72,-74 1713.72,-43.2 1194.8,-43.2"/>
<text text-anchor="start" x="1201.8" y="-55.4" font-family="Arial" font-size="14.00">username </text>
<text text-anchor="start" x="1267.95" y="-55.4" font-family="Arial" font-size="14.00" fill="#666666">[varchar(50)]</text>
</g>
<!-- public.push_receipts&#45;&gt;public.user_profiles -->
<g id="edge3" class="edge">
<title>public.push_receipts:user_id&#45;&gt;public.user_profiles:id</title>
<path fill="none" stroke="black" stroke-dasharray="5,2" d="M661.81,-1166.92C689.36,-1157.59 672.23,-1106.42 650.78,-1076 624.17,-1038.24 579.68,-1077.91 553.26,-1040 521.37,-994.24 524.09,-585.54 553.26,-538 720.27,-265.84 874.49,-212.6 1193.8,-212.6"/>
<polygon fill="black" stroke="black" points="662.01,-1166.89 651.46,-1163.9 656.73,-1167.67 652.45,-1168.3 652.45,-1168.3 652.45,-1168.3 656.73,-1167.67 652.77,-1172.8 662.01,-1166.89"/>
</g>
<!-- public.push_tokens&#45;&gt;public.user_profiles -->
<g id="edge2" class="edge">
<title>public.push_tokens:user_id&#45;&gt;public.user_profiles:id</title>
<path fill="none" stroke="black" stroke-dasharray="5,2" d="M474.69,-641.71C512.34,-632.85 485.01,-571.86 520.26,-538 760.03,-307.7 861.35,-212.6 1193.8,-212.6"/>
<polygon fill="black" stroke="black" points="474.6,-641.72 464.19,-638.29 469.3,-642.28 464.99,-642.73 464.99,-642.73 464.99,-642.73 469.3,-642.28 465.12,-647.24 474.6,-641.72"/>
</g>
<!-- public.active_room_memberships -->
<g id="node4" class="node">
<title>public.active_room_memberships</title>
<polygon fill="#efefef" stroke="none" points="605.72,-904.6 605.72,-950.6 1004.8,-950.6 1004.8,-904.6 605.72,-904.6"/>
<polygon fill="none" stroke="black" points="605.72,-904.6 605.72,-950.6 1004.8,-950.6 1004.8,-904.6 605.72,-904.6"/>
<text text-anchor="start" x="620.8" y="-928.4" font-family="Arial Bold" font-size="18.00">public.active_room_memberships</text>
<text text-anchor="start" x="865.24" y="-928.4" font-family="Arial" font-size="14.00">    </text>
<text text-anchor="start" x="896.35" y="-928.4" font-family="Arial" font-size="14.00" fill="#666666">[BASE TABLE]</text>
<text text-anchor="start" x="612.72" y="-914" font-family="Arial" font-size="14.00" fill="#333333">認証ユーザーが現在保持しているルーム所属のリース。二重参加を防ぐ。</text>
<polygon fill="none" stroke="black" points="605.72,-873.8 605.72,-904.6 1004.8,-904.6 1004.8,-873.8 605.72,-873.8"/>
<text text-anchor="start" x="612.72" y="-886" font-family="Arial" font-size="14.00">created_at </text>
<text text-anchor="start" x="682.77" y="-886" font-family="Arial" font-size="14.00" fill="#666666">[timestamp with time zone]</text>
<polygon fill="none" stroke="black" points="605.72,-843 605.72,-873.8 1004.8,-873.8 1004.8,-843 605.72,-843"/>
<text text-anchor="start" x="612.72" y="-855.2" font-family="Arial" font-size="14.00">last_seen_at </text>
<text text-anchor="start" x="696.01" y="-855.2" font-family="Arial" font-size="14.00" fill="#666666">[timestamp with time zone]</text>
<polygon fill="none" stroke="black" points="605.72,-812.2 605.72,-843 1004.8,-843 1004.8,-812.2 605.72,-812.2"/>
<text text-anchor="start" x="612.72" y="-824.4" font-family="Arial" font-size="14.00">membership_version </text>
<text text-anchor="start" x="746.56" y="-824.4" font-family="Arial" font-size="14.00" fill="#666666">[bigint]</text>
<polygon fill="none" stroke="black" points="605.72,-781.4 605.72,-812.2 1004.8,-812.2 1004.8,-781.4 605.72,-781.4"/>
<text text-anchor="start" x="612.72" y="-793.6" font-family="Arial" font-size="14.00">player_id </text>
<text text-anchor="start" x="673.43" y="-793.6" font-family="Arial" font-size="14.00" fill="#666666">[varchar(255)]</text>
<polygon fill="none" stroke="black" points="605.72,-750.6 605.72,-781.4 1004.8,-781.4 1004.8,-750.6 605.72,-750.6"/>
<text text-anchor="start" x="612.72" y="-762.8" font-family="Arial" font-size="14.00">room_id </text>
<text text-anchor="start" x="667.19" y="-762.8" font-family="Arial" font-size="14.00" fill="#666666">[uuid]</text>
<polygon fill="none" stroke="black" points="605.72,-719.8 605.72,-750.6 1004.8,-750.6 1004.8,-719.8 605.72,-719.8"/>
<text text-anchor="start" x="612.72" y="-732" font-family="Arial" font-size="14.00">status </text>
<text text-anchor="start" x="653.97" y="-732" font-family="Arial" font-size="14.00" fill="#666666">[active_room_membership_status]</text>
<polygon fill="none" stroke="black" points="605.72,-689 605.72,-719.8 1004.8,-719.8 1004.8,-689 605.72,-689"/>
<text text-anchor="start" x="612.72" y="-701.2" font-family="Arial" font-size="14.00">transition_id </text>
<text text-anchor="start" x="692.1" y="-701.2" font-family="Arial" font-size="14.00" fill="#666666">[uuid]</text>
<polygon fill="none" stroke="black" points="605.72,-658.2 605.72,-689 1004.8,-689 1004.8,-658.2 605.72,-658.2"/>
<text text-anchor="start" x="612.72" y="-670.4" font-family="Arial" font-size="14.00">updated_at </text>
<text text-anchor="start" x="686.68" y="-670.4" font-family="Arial" font-size="14.00" fill="#666666">[timestamp with time zone]</text>
<polygon fill="none" stroke="black" points="605.72,-627.4 605.72,-658.2 1004.8,-658.2 1004.8,-627.4 605.72,-627.4"/>
<text text-anchor="start" x="612.72" y="-639.6" font-family="Arial" font-size="14.00">user_id </text>
<text text-anchor="start" x="662.53" y="-639.6" font-family="Arial" font-size="14.00" fill="#666666">[uuid]</text>
</g>
<!-- public.active_room_memberships&#45;&gt;public.user_profiles -->
<g id="edge4" class="edge">
<title>public.active_room_memberships:user_id&#45;&gt;public.user_profiles:id</title>
<path fill="none" stroke="black" d="M1011.85,-634.59C1044.4,-575.12 1181.83,-212.6 1193.8,-212.6"/>
<polygon fill="black" stroke="black" points="1011.93,-634.48 1002.38,-639.86 1008.77,-638.78 1006.2,-642.26 1006.2,-642.26 1006.2,-642.26 1008.77,-638.78 1009.62,-645.2 1011.93,-634.48"/>
</g>
<!-- public.chat_members -->
<g id="node5" class="node">
<title>public.chat_members</title>
<polygon fill="#efefef" stroke="none" points="1108.79,-843 1108.79,-889 1401.73,-889 1401.73,-843 1108.79,-843"/>
<polygon fill="none" stroke="black" points="1108.79,-843 1108.79,-889 1401.73,-889 1401.73,-843 1108.79,-843"/>
<text text-anchor="start" x="1115.79" y="-866.8" font-family="Arial Bold" font-size="18.00">public.chat_members</text>
<text text-anchor="start" x="1270.24" y="-866.8" font-family="Arial" font-size="14.00">    </text>
<text text-anchor="start" x="1301.36" y="-866.8" font-family="Arial" font-size="14.00" fill="#666666">[BASE TABLE]</text>
<text text-anchor="start" x="1138.57" y="-852.4" font-family="Arial" font-size="14.00" fill="#333333">チャットルームのメンバーシップとロール。</text>
<polygon fill="none" stroke="black" points="1108.79,-812.2 1108.79,-843 1401.73,-843 1401.73,-812.2 1108.79,-812.2"/>
<text text-anchor="start" x="1115.79" y="-824.4" font-family="Arial" font-size="14.00">id </text>
<text text-anchor="start" x="1130.58" y="-824.4" font-family="Arial" font-size="14.00" fill="#666666">[uuid]</text>
<polygon fill="none" stroke="black" points="1108.79,-781.4 1108.79,-812.2 1401.73,-812.2 1401.73,-781.4 1108.79,-781.4"/>
<text text-anchor="start" x="1115.79" y="-793.6" font-family="Arial" font-size="14.00">joined_at </text>
<text text-anchor="start" x="1176.51" y="-793.6" font-family="Arial" font-size="14.00" fill="#666666">[timestamp with time zone]</text>
<polygon fill="none" stroke="black" points="1108.79,-750.6 1108.79,-781.4 1401.73,-781.4 1401.73,-750.6 1108.79,-750.6"/>
<text text-anchor="start" x="1115.79" y="-762.8" font-family="Arial" font-size="14.00">role </text>
<text text-anchor="start" x="1143.03" y="-762.8" font-family="Arial" font-size="14.00" fill="#666666">[chat_member_role]</text>
<polygon fill="none" stroke="black" points="1108.79,-719.8 1108.79,-750.6 1401.73,-750.6 1401.73,-719.8 1108.79,-719.8"/>
<text text-anchor="start" x="1115.79" y="-732" font-family="Arial" font-size="14.00">room_id </text>
<text text-anchor="start" x="1170.26" y="-732" font-family="Arial" font-size="14.00" fill="#666666">[uuid]</text>
<polygon fill="none" stroke="black" points="1108.79,-689 1108.79,-719.8 1401.73,-719.8 1401.73,-689 1108.79,-689"/>
<text text-anchor="start" x="1115.79" y="-701.2" font-family="Arial" font-size="14.00">user_id </text>
<text text-anchor="start" x="1165.6" y="-701.2" font-family="Arial" font-size="14.00" fill="#666666">[uuid]</text>
</g>
<!-- public.chat_members&#45;&gt;public.user_profiles -->
<g id="edge5" class="edge">
<title>public.chat_members:user_id&#45;&gt;public.user_profiles:id</title>
<path fill="none" stroke="black" stroke-dasharray="5,2" d="M1412.45,-701.74C1424,-693.05 1411.98,-665.01 1401.73,-645.8 1349,-547 1246.86,-601.16 1194.8,-502 1135.01,-388.12 1065.18,-212.6 1193.8,-212.6"/>
<polygon fill="black" stroke="black" points="1412.7,-701.67 1401.86,-699.97 1407.55,-703.08 1403.38,-704.22 1403.38,-704.22 1403.38,-704.22 1407.55,-703.08 1404.24,-708.65 1412.7,-701.67"/>
</g>
<!-- public.chat_messages -->
<g id="node6" class="node">
<title>public.chat_messages</title>
<polygon fill="#efefef" stroke="none" points="1505.79,-873.8 1505.79,-919.8 1800.73,-919.8 1800.73,-873.8 1505.79,-873.8"/>
<polygon fill="none" stroke="black" points="1505.79,-873.8 1505.79,-919.8 1800.73,-919.8 1800.73,-873.8 1505.79,-873.8"/>
<text text-anchor="start" x="1512.79" y="-897.6" font-family="Arial Bold" font-size="18.00">public.chat_messages</text>
<text text-anchor="start" x="1669.24" y="-897.6" font-family="Arial" font-size="14.00">    </text>
<text text-anchor="start" x="1700.36" y="-897.6" font-family="Arial" font-size="14.00" fill="#666666">[BASE TABLE]</text>
<text text-anchor="start" x="1542.41" y="-883.2" font-family="Arial" font-size="14.00" fill="#333333">チャットメッセージと返信先メッセージ。</text>
<polygon fill="none" stroke="black" points="1505.79,-843 1505.79,-873.8 1800.73,-873.8 1800.73,-843 1505.79,-843"/>
<text text-anchor="start" x="1512.79" y="-855.2" font-family="Arial" font-size="14.00">content </text>
<text text-anchor="start" x="1562.6" y="-855.2" font-family="Arial" font-size="14.00" fill="#666666">[text]</text>
<polygon fill="none" stroke="black" points="1505.79,-812.2 1505.79,-843 1800.73,-843 1800.73,-812.2 1505.79,-812.2"/>
<text text-anchor="start" x="1512.79" y="-824.4" font-family="Arial" font-size="14.00">content_type </text>
<text text-anchor="start" x="1596.85" y="-824.4" font-family="Arial" font-size="14.00" fill="#666666">[chat_content_type]</text>
<polygon fill="none" stroke="black" points="1505.79,-781.4 1505.79,-812.2 1800.73,-812.2 1800.73,-781.4 1505.79,-781.4"/>
<text text-anchor="start" x="1512.79" y="-793.6" font-family="Arial" font-size="14.00">created_at </text>
<text text-anchor="start" x="1582.84" y="-793.6" font-family="Arial" font-size="14.00" fill="#666666">[timestamp with time zone]</text>
<polygon fill="none" stroke="black" points="1505.79,-750.6 1505.79,-781.4 1800.73,-781.4 1800.73,-750.6 1505.79,-750.6"/>
<text text-anchor="start" x="1512.79" y="-762.8" font-family="Arial" font-size="14.00">id </text>
<text text-anchor="start" x="1527.58" y="-762.8" font-family="Arial" font-size="14.00" fill="#666666">[uuid]</text>
<polygon fill="none" stroke="black" points="1505.79,-719.8 1505.79,-750.6 1800.73,-750.6 1800.73,-719.8 1505.79,-719.8"/>
<text text-anchor="start" x="1512.79" y="-732" font-family="Arial" font-size="14.00">reply_to </text>
<text text-anchor="start" x="1566.49" y="-732" font-family="Arial" font-size="14.00" fill="#666666">[uuid]</text>
<polygon fill="none" stroke="black" points="1505.79,-689 1505.79,-719.8 1800.73,-719.8 1800.73,-689 1505.79,-689"/>
<text text-anchor="start" x="1512.79" y="-701.2" font-family="Arial" font-size="14.00">room_id </text>
<text text-anchor="start" x="1567.26" y="-701.2" font-family="Arial" font-size="14.00" fill="#666666">[uuid]</text>
<polygon fill="none" stroke="black" points="1505.79,-658.2 1505.79,-689 1800.73,-689 1800.73,-658.2 1505.79,-658.2"/>
<text text-anchor="start" x="1512.79" y="-670.4" font-family="Arial" font-size="14.00">sender_id </text>
<text text-anchor="start" x="1578.17" y="-670.4" font-family="Arial" font-size="14.00" fill="#666666">[uuid]</text>
</g>
<!-- public.chat_messages&#45;&gt;public.user_profiles -->
<g id="edge6" class="edge">
<title>public.chat_messages:sender_id&#45;&gt;public.user_profiles:id</title>
<path fill="none" stroke="black" stroke-dasharray="5,2" d="M1494.99,-670.89C1483.18,-662.06 1494.5,-633.62 1505.79,-615 1560.32,-525.06 1659.8,-592.31 1713.72,-502 1779.65,-391.56 1843.34,-212.6 1714.72,-212.6"/>
<polygon fill="black" stroke="black" points="1494.83,-670.84 1503.27,-677.85 1499.97,-672.27 1504.15,-673.42 1504.15,-673.42 1504.15,-673.42 1499.97,-672.27 1505.67,-669.17 1494.83,-670.84"/>
</g>
<!-- public.chat_rooms -->
<g id="node7" class="node">
<title>public.chat_rooms</title>
<polygon fill="#efefef" stroke="none" points="1904.73,-889.2 1904.73,-935.2 2233.79,-935.2 2233.79,-889.2 1904.73,-889.2"/>
<polygon fill="none" stroke="black" points="1904.73,-889.2 1904.73,-935.2 2233.79,-935.2 2233.79,-889.2 1904.73,-889.2"/>
<text text-anchor="start" x="1940.28" y="-913" font-family="Arial Bold" font-size="18.00">public.chat_rooms</text>
<text text-anchor="start" x="2073.75" y="-913" font-family="Arial" font-size="14.00">    </text>
<text text-anchor="start" x="2104.87" y="-913" font-family="Arial" font-size="14.00" fill="#666666">[BASE TABLE]</text>
<text text-anchor="start" x="1911.73" y="-898.6" font-family="Arial" font-size="14.00" fill="#333333">グローバル、ロビー、卓、プライベートのチャットルーム。</text>
<polygon fill="none" stroke="black" points="1904.73,-858.4 1904.73,-889.2 2233.79,-889.2 2233.79,-858.4 1904.73,-858.4"/>
<text text-anchor="start" x="1911.73" y="-870.6" font-family="Arial" font-size="14.00">created_at </text>
<text text-anchor="start" x="1981.78" y="-870.6" font-family="Arial" font-size="14.00" fill="#666666">[timestamp with time zone]</text>
<polygon fill="none" stroke="black" points="1904.73,-827.6 1904.73,-858.4 2233.79,-858.4 2233.79,-827.6 1904.73,-827.6"/>
<text text-anchor="start" x="1911.73" y="-839.8" font-family="Arial" font-size="14.00">id </text>
<text text-anchor="start" x="1926.52" y="-839.8" font-family="Arial" font-size="14.00" fill="#666666">[uuid]</text>
<polygon fill="none" stroke="black" points="1904.73,-796.8 1904.73,-827.6 2233.79,-827.6 2233.79,-796.8 1904.73,-796.8"/>
<text text-anchor="start" x="1911.73" y="-809" font-family="Arial" font-size="14.00">message_ttl_hours </text>
<text text-anchor="start" x="2033.91" y="-809" font-family="Arial" font-size="14.00" fill="#666666">[integer]</text>
<polygon fill="none" stroke="black" points="1904.73,-766 1904.73,-796.8 2233.79,-796.8 2233.79,-766 1904.73,-766"/>
<text text-anchor="start" x="1911.73" y="-778.2" font-family="Arial" font-size="14.00">name </text>
<text text-anchor="start" x="1950.64" y="-778.2" font-family="Arial" font-size="14.00" fill="#666666">[varchar(255)]</text>
<polygon fill="none" stroke="black" points="1904.73,-735.2 1904.73,-766 2233.79,-766 2233.79,-735.2 1904.73,-735.2"/>
<text text-anchor="start" x="1911.73" y="-747.4" font-family="Arial" font-size="14.00">owner_id </text>
<text text-anchor="start" x="1972.43" y="-747.4" font-family="Arial" font-size="14.00" fill="#666666">[uuid]</text>
<polygon fill="none" stroke="black" points="1904.73,-704.4 1904.73,-735.2 2233.79,-735.2 2233.79,-704.4 1904.73,-704.4"/>
<text text-anchor="start" x="1911.73" y="-716.6" font-family="Arial" font-size="14.00">scope </text>
<text text-anchor="start" x="1952.98" y="-716.6" font-family="Arial" font-size="14.00" fill="#666666">[chat_room_scope]</text>
<polygon fill="none" stroke="black" points="1904.73,-673.6 1904.73,-704.4 2233.79,-704.4 2233.79,-673.6 1904.73,-673.6"/>
<text text-anchor="start" x="1911.73" y="-685.8" font-family="Arial" font-size="14.00">updated_at </text>
<text text-anchor="start" x="1985.69" y="-685.8" font-family="Arial" font-size="14.00" fill="#666666">[timestamp with time zone]</text>
<polygon fill="none" stroke="black" points="1904.73,-642.8 1904.73,-673.6 2233.79,-673.6 2233.79,-642.8 1904.73,-642.8"/>
<text text-anchor="start" x="1911.73" y="-655" font-family="Arial" font-size="14.00">visibility </text>
<text text-anchor="start" x="1963.85" y="-655" font-family="Arial" font-size="14.00" fill="#666666">[chat_room_visibility]</text>
</g>
<!-- public.chat_rooms&#45;&gt;public.user_profiles -->
<g id="edge7" class="edge">
<title>public.chat_rooms:owner_id&#45;&gt;public.user_profiles:id</title>
<path fill="none" stroke="black" stroke-dasharray="5,2" d="M1893.9,-747.97C1856.99,-726.55 1867.31,-580.7 1853.26,-538 1804.15,-388.69 1871.9,-212.6 1714.72,-212.6"/>
<polygon fill="black" stroke="black" points="1893.75,-747.92 1902.24,-754.86 1898.9,-749.31 1903.08,-750.43 1903.08,-750.43 1903.08,-750.43 1898.9,-749.31 1904.57,-746.17 1893.75,-747.92"/>
</g>
<!-- public.room_membership_events -->
<g id="node8" class="node">
<title>public.room_membership_events</title>
<polygon fill="#efefef" stroke="none" points="2337.79,-904.6 2337.79,-950.6 2716.73,-950.6 2716.73,-904.6 2337.79,-904.6"/>
<polygon fill="none" stroke="black" points="2337.79,-904.6 2337.79,-950.6 2716.73,-950.6 2716.73,-904.6 2337.79,-904.6"/>
<text text-anchor="start" x="2344.79" y="-928.4" font-family="Arial Bold" font-size="18.00">public.room_membership_events</text>
<text text-anchor="start" x="2585.24" y="-928.4" font-family="Arial" font-size="14.00">    </text>
<text text-anchor="start" x="2616.36" y="-928.4" font-family="Arial" font-size="14.00" fill="#666666">[BASE TABLE]</text>
<text text-anchor="start" x="2393.07" y="-914" font-family="Arial" font-size="14.00" fill="#333333">ルーム所属リースの遷移を追跡する監査イベント。</text>
<polygon fill="none" stroke="black" points="2337.79,-873.8 2337.79,-904.6 2716.73,-904.6 2716.73,-873.8 2337.79,-873.8"/>
<text text-anchor="start" x="2344.79" y="-886" font-family="Arial" font-size="14.00">created_at </text>
<text text-anchor="start" x="2414.84" y="-886" font-family="Arial" font-size="14.00" fill="#666666">[timestamp with time zone]</text>
<polygon fill="none" stroke="black" points="2337.79,-843 2337.79,-873.8 2716.73,-873.8 2716.73,-843 2337.79,-843"/>
<text text-anchor="start" x="2344.79" y="-855.2" font-family="Arial" font-size="14.00">event_type </text>
<text text-anchor="start" x="2417.18" y="-855.2" font-family="Arial" font-size="14.00" fill="#666666">[text]</text>
<polygon fill="none" stroke="black" points="2337.79,-812.2 2337.79,-843 2716.73,-843 2716.73,-812.2 2337.79,-812.2"/>
<text text-anchor="start" x="2344.79" y="-824.4" font-family="Arial" font-size="14.00">from_room_id </text>
<text text-anchor="start" x="2435.05" y="-824.4" font-family="Arial" font-size="14.00" fill="#666666">[uuid]</text>
<polygon fill="none" stroke="black" points="2337.79,-781.4 2337.79,-812.2 2716.73,-812.2 2716.73,-781.4 2337.79,-781.4"/>
<text text-anchor="start" x="2344.79" y="-793.6" font-family="Arial" font-size="14.00">id </text>
<text text-anchor="start" x="2359.58" y="-793.6" font-family="Arial" font-size="14.00" fill="#666666">[bigint]</text>
<polygon fill="none" stroke="black" points="2337.79,-750.6 2337.79,-781.4 2716.73,-781.4 2716.73,-750.6 2337.79,-750.6"/>
<text text-anchor="start" x="2344.79" y="-762.8" font-family="Arial" font-size="14.00">membership_version </text>
<text text-anchor="start" x="2478.63" y="-762.8" font-family="Arial" font-size="14.00" fill="#666666">[bigint]</text>
<polygon fill="none" stroke="black" points="2337.79,-719.8 2337.79,-750.6 2716.73,-750.6 2716.73,-719.8 2337.79,-719.8"/>
<text text-anchor="start" x="2344.79" y="-732" font-family="Arial" font-size="14.00">metadata </text>
<text text-anchor="start" x="2407.05" y="-732" font-family="Arial" font-size="14.00" fill="#666666">[jsonb]</text>
<polygon fill="none" stroke="black" points="2337.79,-689 2337.79,-719.8 2716.73,-719.8 2716.73,-689 2337.79,-689"/>
<text text-anchor="start" x="2344.79" y="-701.2" font-family="Arial" font-size="14.00">to_room_id </text>
<text text-anchor="start" x="2418.72" y="-701.2" font-family="Arial" font-size="14.00" fill="#666666">[uuid]</text>
<polygon fill="none" stroke="black" points="2337.79,-658.2 2337.79,-689 2716.73,-689 2716.73,-658.2 2337.79,-658.2"/>
<text text-anchor="start" x="2344.79" y="-670.4" font-family="Arial" font-size="14.00">transition_id </text>
<text text-anchor="start" x="2424.17" y="-670.4" font-family="Arial" font-size="14.00" fill="#666666">[uuid]</text>
<polygon fill="none" stroke="black" points="2337.79,-627.4 2337.79,-658.2 2716.73,-658.2 2716.73,-627.4 2337.79,-627.4"/>
<text text-anchor="start" x="2344.79" y="-639.6" font-family="Arial" font-size="14.00">user_id </text>
<text text-anchor="start" x="2394.6" y="-639.6" font-family="Arial" font-size="14.00" fill="#666666">[uuid]</text>
</g>
<!-- public.room_membership_events&#45;&gt;public.user_profiles -->
<g id="edge8" class="edge">
<title>public.room_membership_events:user_id&#45;&gt;public.user_profiles:id</title>
<path fill="none" stroke="black" d="M2326.67,-641.73C2290.1,-633.01 2318.94,-572.99 2286.26,-538 2086.75,-324.37 2007.02,-212.6 1714.72,-212.6"/>
<polygon fill="black" stroke="black" points="2326.51,-641.72 2335.99,-647.24 2331.82,-642.28 2336.13,-642.73 2336.13,-642.73 2336.13,-642.73 2331.82,-642.28 2336.93,-638.29 2326.51,-641.72"/>
</g>
<!-- public.room_players -->
<g id="node9" class="node">
<title>public.room_players</title>
<polygon fill="#efefef" stroke="none" points="2821.12,-950.8 2821.12,-996.8 3233.41,-996.8 3233.41,-950.8 2821.12,-950.8"/>
<polygon fill="none" stroke="black" points="2821.12,-950.8 2821.12,-996.8 3233.41,-996.8 3233.41,-950.8 2821.12,-950.8"/>
<text text-anchor="start" x="2890.78" y="-974.6" font-family="Arial Bold" font-size="18.00">public.room_players</text>
<text text-anchor="start" x="3039.25" y="-974.6" font-family="Arial" font-size="14.00">    </text>
<text text-anchor="start" x="3070.37" y="-974.6" font-family="Arial" font-size="14.00" fill="#666666">[BASE TABLE]</text>
<text text-anchor="start" x="2828.12" y="-960.2" font-family="Arial" font-size="14.00" fill="#333333">ルーム内の座席、チーム、COM 状態、参加者識別子を保持するロスター。</text>
<polygon fill="none" stroke="black" points="2821.12,-920 2821.12,-950.8 3233.41,-950.8 3233.41,-920 2821.12,-920"/>
<text text-anchor="start" x="2828.12" y="-932.2" font-family="Arial" font-size="14.00">id </text>
<text text-anchor="start" x="2842.9" y="-932.2" font-family="Arial" font-size="14.00" fill="#666666">[uuid]</text>
<polygon fill="none" stroke="black" points="2821.12,-889.2 2821.12,-920 3233.41,-920 3233.41,-889.2 2821.12,-889.2"/>
<text text-anchor="start" x="2828.12" y="-901.4" font-family="Arial" font-size="14.00">is_com </text>
<text text-anchor="start" x="2876.35" y="-901.4" font-family="Arial" font-size="14.00" fill="#666666">[boolean]</text>
<polygon fill="none" stroke="black" points="2821.12,-858.4 2821.12,-889.2 3233.41,-889.2 3233.41,-858.4 2821.12,-858.4"/>
<text text-anchor="start" x="2828.12" y="-870.6" font-family="Arial" font-size="14.00">is_host </text>
<text text-anchor="start" x="2876.37" y="-870.6" font-family="Arial" font-size="14.00" fill="#666666">[boolean]</text>
<polygon fill="none" stroke="black" points="2821.12,-827.6 2821.12,-858.4 3233.41,-858.4 3233.41,-827.6 2821.12,-827.6"/>
<text text-anchor="start" x="2828.12" y="-839.8" font-family="Arial" font-size="14.00">is_ready </text>
<text text-anchor="start" x="2884.92" y="-839.8" font-family="Arial" font-size="14.00" fill="#666666">[boolean]</text>
<polygon fill="none" stroke="black" points="2821.12,-796.8 2821.12,-827.6 3233.41,-827.6 3233.41,-796.8 2821.12,-796.8"/>
<text text-anchor="start" x="2828.12" y="-809" font-family="Arial" font-size="14.00">joined_at </text>
<text text-anchor="start" x="2888.83" y="-809" font-family="Arial" font-size="14.00" fill="#666666">[timestamp with time zone]</text>
<polygon fill="none" stroke="black" points="2821.12,-766 2821.12,-796.8 3233.41,-796.8 3233.41,-766 2821.12,-766"/>
<text text-anchor="start" x="2828.12" y="-778.2" font-family="Arial" font-size="14.00">name </text>
<text text-anchor="start" x="2867.03" y="-778.2" font-family="Arial" font-size="14.00" fill="#666666">[varchar(255)]</text>
<polygon fill="none" stroke="black" points="2821.12,-735.2 2821.12,-766 3233.41,-766 3233.41,-735.2 2821.12,-735.2"/>
<text text-anchor="start" x="2828.12" y="-747.4" font-family="Arial" font-size="14.00">player_id </text>
<text text-anchor="start" x="2888.82" y="-747.4" font-family="Arial" font-size="14.00" fill="#666666">[varchar(255)]</text>
<polygon fill="none" stroke="black" points="2821.12,-704.4 2821.12,-735.2 3233.41,-735.2 3233.41,-704.4 2821.12,-704.4"/>
<text text-anchor="start" x="2828.12" y="-716.6" font-family="Arial" font-size="14.00">room_id </text>
<text text-anchor="start" x="2882.59" y="-716.6" font-family="Arial" font-size="14.00" fill="#666666">[uuid]</text>
<polygon fill="none" stroke="black" points="2821.12,-673.6 2821.12,-704.4 3233.41,-704.4 3233.41,-673.6 2821.12,-673.6"/>
<text text-anchor="start" x="2828.12" y="-685.8" font-family="Arial" font-size="14.00">seat_index </text>
<text text-anchor="start" x="2899.72" y="-685.8" font-family="Arial" font-size="14.00" fill="#666666">[integer]</text>
<polygon fill="none" stroke="black" points="2821.12,-642.8 2821.12,-673.6 3233.41,-673.6 3233.41,-642.8 2821.12,-642.8"/>
<text text-anchor="start" x="2828.12" y="-655" font-family="Arial" font-size="14.00">socket_id </text>
<text text-anchor="start" x="2891.15" y="-655" font-family="Arial" font-size="14.00" fill="#666666">[varchar(255)]</text>
<polygon fill="none" stroke="black" points="2821.12,-612 2821.12,-642.8 3233.41,-642.8 3233.41,-612 2821.12,-612"/>
<text text-anchor="start" x="2828.12" y="-624.2" font-family="Arial" font-size="14.00">team </text>
<text text-anchor="start" x="2863.13" y="-624.2" font-family="Arial" font-size="14.00" fill="#666666">[integer]</text>
<polygon fill="none" stroke="black" points="2821.12,-581.2 2821.12,-612 3233.41,-612 3233.41,-581.2 2821.12,-581.2"/>
<text text-anchor="start" x="2828.12" y="-593.4" font-family="Arial" font-size="14.00">user_id </text>
<text text-anchor="start" x="2877.92" y="-593.4" font-family="Arial" font-size="14.00" fill="#666666">[uuid]</text>
</g>
<!-- public.room_players&#45;&gt;public.user_profiles -->
<g id="edge9" class="edge">
<title>public.room_players:user_id&#45;&gt;public.user_profiles:id</title>
<path fill="none" stroke="black" d="M2810.08,-595.16C2787.94,-587.86 2794.88,-554.7 2769.26,-538 2358.36,-270.16 2205.21,-212.6 1714.72,-212.6"/>
<polygon fill="black" stroke="black" points="2809.89,-595.13 2819.15,-601.01 2815.17,-595.89 2819.45,-596.5 2819.45,-596.5 2819.45,-596.5 2815.17,-595.89 2820.43,-592.1 2809.89,-595.13"/>
</g>
</g>
</svg>
