<?xml version="1.0" encoding="UTF-8" standalone="no"?>
<!DOCTYPE svg PUBLIC "-//W3C//DTD SVG 1.1//EN"
 "http://www.w3.org/Graphics/SVG/1.1/DTD/svg11.dtd">
<!-- Generated by graphviz version 12.1.2 (20240928.0832)
 -->
<!-- Title: public.game_states Pages: 1 -->
<svg width="1970pt" height="1914pt"
 viewBox="0.00 0.00 1970.46 1914.40" xmlns="http://www.w3.org/2000/svg" xmlns:xlink="http://www.w3.org/1999/xlink">
<g id="graph0" class="graph" transform="scale(1 1) rotate(0) translate(4 1910.4)">
<title>public.game_states</title>
<polygon fill="white" stroke="none" points="-4,4 -4,-1910.4 1966.46,-1910.4 1966.46,4 -4,4"/>
<!-- public.game_states -->
<g id="node1" class="node">
<title>public.game_states</title>
<polygon fill="#efefef" stroke="none" points="46.2,-1399.4 46.2,-1445.4 649.96,-1445.4 649.96,-1399.4 46.2,-1399.4"/>
<polygon fill="none" stroke="black" points="46.2,-1399.4 46.2,-1445.4 649.96,-1445.4 649.96,-1399.4 46.2,-1399.4"/>
<text text-anchor="start" x="217.11" y="-1423.2" font-family="Arial Bold" font-size="18.00">public.game_states</text>
<text text-anchor="start" x="354.57" y="-1423.2" font-family="Arial" font-size="14.00">    </text>
<text text-anchor="start" x="385.68" y="-1423.2" font-family="Arial" font-size="14.00" fill="#666666">[BASE TABLE]</text>
<text text-anchor="start" x="53.2" y="-1408.8" font-family="Arial" font-size="14.00" fill="#333333">ルームごとのバージョン付きゲーム状態。current_seat_id と identitySchemaVersion 2 が席参照の正本。</text>
<polygon fill="none" stroke="black" points="46.2,-1368.6 46.2,-1399.4 649.96,-1399.4 649.96,-1368.6 46.2,-1368.6"/>
<text text-anchor="start" x="53.2" y="-1380.8" font-family="Arial" font-size="14.00">created_at </text>
<text text-anchor="start" x="123.25" y="-1380.8" font-family="Arial" font-size="14.00" fill="#666666">[timestamp with time zone]</text>
<polygon fill="none" stroke="black" points="46.2,-1337.8 46.2,-1368.6 649.96,-1368.6 649.96,-1337.8 46.2,-1337.8"/>
<text text-anchor="start" x="53.2" y="-1350" font-family="Arial" font-size="14.00">current_seat_id </text>
<text text-anchor="start" x="153.59" y="-1350" font-family="Arial" font-size="14.00" fill="#666666">[uuid]</text>
<text text-anchor="start" x="187.84" y="-1350" font-family="Arial" font-size="14.00"> Canonical current&#45;turn seat UUID.</text>
<polygon fill="none" stroke="black" points="46.2,-1307 46.2,-1337.8 649.96,-1337.8 649.96,-1307 46.2,-1307"/>
<text text-anchor="start" x="53.2" y="-1319.2" font-family="Arial" font-size="14.00">game_phase </text>
<text text-anchor="start" x="138.04" y="-1319.2" font-family="Arial" font-size="14.00" fill="#666666">[game_phase]</text>
<polygon fill="none" stroke="black" points="46.2,-1276.2 46.2,-1307 649.96,-1307 649.96,-1276.2 46.2,-1276.2"/>
<text text-anchor="start" x="53.2" y="-1288.4" font-family="Arial" font-size="14.00">id </text>
<text text-anchor="start" x="67.99" y="-1288.4" font-family="Arial" font-size="14.00" fill="#666666">[uuid]</text>
<polygon fill="none" stroke="black" points="46.2,-1245.4 46.2,-1276.2 649.96,-1276.2 649.96,-1245.4 46.2,-1245.4"/>
<text text-anchor="start" x="53.2" y="-1257.6" font-family="Arial" font-size="14.00">points_to_win </text>
<text text-anchor="start" x="142.7" y="-1257.6" font-family="Arial" font-size="14.00" fill="#666666">[integer]</text>
<polygon fill="none" stroke="black" points="46.2,-1214.6 46.2,-1245.4 649.96,-1245.4 649.96,-1214.6 46.2,-1214.6"/>
<text text-anchor="start" x="53.2" y="-1226.8" font-family="Arial" font-size="14.00">room_id </text>
<text text-anchor="start" x="107.67" y="-1226.8" font-family="Arial" font-size="14.00" fill="#666666">[uuid]</text>
<polygon fill="none" stroke="black" points="46.2,-1183.8 46.2,-1214.6 649.96,-1214.6 649.96,-1183.8 46.2,-1183.8"/>
<text text-anchor="start" x="53.2" y="-1196" font-family="Arial" font-size="14.00">round_number </text>
<text text-anchor="start" x="148.15" y="-1196" font-family="Arial" font-size="14.00" fill="#666666">[integer]</text>
<polygon fill="none" stroke="black" points="46.2,-1153 46.2,-1183.8 649.96,-1183.8 649.96,-1153 46.2,-1153"/>
<text text-anchor="start" x="53.2" y="-1165.2" font-family="Arial" font-size="14.00">state_data </text>
<text text-anchor="start" x="122.48" y="-1165.2" font-family="Arial" font-size="14.00" fill="#666666">[jsonb]</text>
<polygon fill="none" stroke="black" points="46.2,-1122.2 46.2,-1153 649.96,-1153 649.96,-1122.2 46.2,-1122.2"/>
<text text-anchor="start" x="53.2" y="-1134.4" font-family="Arial" font-size="14.00">team_score_records </text>
<text text-anchor="start" x="184.7" y="-1134.4" font-family="Arial" font-size="14.00" fill="#666666">[jsonb]</text>
<polygon fill="none" stroke="black" points="46.2,-1091.4 46.2,-1122.2 649.96,-1122.2 649.96,-1091.4 46.2,-1091.4"/>
<text text-anchor="start" x="53.2" y="-1103.6" font-family="Arial" font-size="14.00">team_scores </text>
<text text-anchor="start" x="137.23" y="-1103.6" font-family="Arial" font-size="14.00" fill="#666666">[jsonb]</text>
<polygon fill="none" stroke="black" points="46.2,-1060.6 46.2,-1091.4 649.96,-1091.4 649.96,-1060.6 46.2,-1060.6"/>
<text text-anchor="start" x="53.2" y="-1072.8" font-family="Arial" font-size="14.00">updated_at </text>
<text text-anchor="start" x="127.16" y="-1072.8" font-family="Arial" font-size="14.00" fill="#666666">[timestamp with time zone]</text>
<polygon fill="none" stroke="black" points="46.2,-1029.8 46.2,-1060.6 649.96,-1060.6 649.96,-1029.8 46.2,-1029.8"/>
<text text-anchor="start" x="53.2" y="-1042" font-family="Arial" font-size="14.00">version </text>
<text text-anchor="start" x="102.22" y="-1042" font-family="Arial" font-size="14.00" fill="#666666">[bigint]</text>
<polygon fill="none" stroke="black" stroke-width="3" points="44.7,-1028.3 44.7,-1446.9 651.46,-1446.9 651.46,-1028.3 44.7,-1028.3"/>
</g>
<!-- public.room_players -->
<g id="node2" class="node">
<title>public.room_players</title>
<polygon fill="#efefef" stroke="none" points="311.36,-858.4 311.36,-904.4 1228.8,-904.4 1228.8,-858.4 311.36,-858.4"/>
<polygon fill="none" stroke="black" points="311.36,-858.4 311.36,-904.4 1228.8,-904.4 1228.8,-858.4 311.36,-858.4"/>
<text text-anchor="start" x="633.6" y="-882.2" font-family="Arial Bold" font-size="18.00">public.room_players</text>
<text text-anchor="start" x="782.07" y="-882.2" font-family="Arial" font-size="14.00">    </text>
<text text-anchor="start" x="813.19" y="-882.2" font-family="Arial" font-size="14.00" fill="#666666">[BASE TABLE]</text>
<text text-anchor="start" x="568.58" y="-867.8" font-family="Arial" font-size="14.00" fill="#333333">ルーム内の席ロスター。id が部屋削除まで不変の canonical seat UUID。</text>
<polygon fill="none" stroke="black" points="311.36,-827.6 311.36,-858.4 1228.8,-858.4 1228.8,-827.6 311.36,-827.6"/>
<text text-anchor="start" x="318.36" y="-839.8" font-family="Arial" font-size="14.00">id </text>
<text text-anchor="start" x="333.15" y="-839.8" font-family="Arial" font-size="14.00" fill="#666666">[uuid]</text>
<text text-anchor="start" x="367.39" y="-839.8" font-family="Arial" font-size="14.00"> Canonical immutable seat UUID within a room.</text>
<polygon fill="none" stroke="black" points="311.36,-796.8 311.36,-827.6 1228.8,-827.6 1228.8,-796.8 311.36,-796.8"/>
<text text-anchor="start" x="318.36" y="-809" font-family="Arial" font-size="14.00">is_com </text>
<text text-anchor="start" x="366.59" y="-809" font-family="Arial" font-size="14.00" fill="#666666">[boolean]</text>
<polygon fill="none" stroke="black" points="311.36,-766 311.36,-796.8 1228.8,-796.8 1228.8,-766 311.36,-766"/>
<text text-anchor="start" x="318.36" y="-778.2" font-family="Arial" font-size="14.00">is_ready </text>
<text text-anchor="start" x="375.17" y="-778.2" font-family="Arial" font-size="14.00" fill="#666666">[boolean]</text>
<polygon fill="none" stroke="black" points="311.36,-735.2 311.36,-766 1228.8,-766 1228.8,-735.2 311.36,-735.2"/>
<text text-anchor="start" x="318.36" y="-747.4" font-family="Arial" font-size="14.00">joined_at </text>
<text text-anchor="start" x="379.08" y="-747.4" font-family="Arial" font-size="14.00" fill="#666666">[timestamp with time zone]</text>
<polygon fill="none" stroke="black" points="311.36,-704.4 311.36,-735.2 1228.8,-735.2 1228.8,-704.4 311.36,-704.4"/>
<text text-anchor="start" x="318.36" y="-716.6" font-family="Arial" font-size="14.00">name </text>
<text text-anchor="start" x="357.27" y="-716.6" font-family="Arial" font-size="14.00" fill="#666666">[varchar(255)]</text>
<polygon fill="none" stroke="black" points="311.36,-673.6 311.36,-704.4 1228.8,-704.4 1228.8,-673.6 311.36,-673.6"/>
<text text-anchor="start" x="318.36" y="-685.8" font-family="Arial" font-size="14.00">room_id </text>
<text text-anchor="start" x="372.83" y="-685.8" font-family="Arial" font-size="14.00" fill="#666666">[uuid]</text>
<polygon fill="none" stroke="black" points="311.36,-642.8 311.36,-673.6 1228.8,-673.6 1228.8,-642.8 311.36,-642.8"/>
<text text-anchor="start" x="318.36" y="-655" font-family="Arial" font-size="14.00">seat_index </text>
<text text-anchor="start" x="389.97" y="-655" font-family="Arial" font-size="14.00" fill="#666666">[integer]</text>
<polygon fill="none" stroke="black" points="311.36,-612 311.36,-642.8 1228.8,-642.8 1228.8,-612 311.36,-612"/>
<text text-anchor="start" x="318.36" y="-624.2" font-family="Arial" font-size="14.00">team </text>
<text text-anchor="start" x="353.37" y="-624.2" font-family="Arial" font-size="14.00" fill="#666666">[integer]</text>
<polygon fill="none" stroke="black" points="311.36,-581.2 311.36,-612 1228.8,-612 1228.8,-581.2 311.36,-581.2"/>
<text text-anchor="start" x="318.36" y="-593.4" font-family="Arial" font-size="14.00">user_id </text>
<text text-anchor="start" x="368.17" y="-593.4" font-family="Arial" font-size="14.00" fill="#666666">[uuid]</text>
<text text-anchor="start" x="402.41" y="-593.4" font-family="Arial" font-size="14.00"> Authenticated seat owner. A timeout&#45;controlled COM keeps this value so the same user can reclaim the seat after a process restart.</text>
</g>
<!-- public.game_states&#45;&gt;public.room_players -->
<g id="edge1" class="edge">
<title>public.game_states:room_id&#45;&gt;public.room_players:room_id</title>
<path fill="none" stroke="black" d="M660.91,-1227.39C703.11,-1203.4 684.22,-1021.54 649.96,-983.6 599.25,-927.44 362.07,-1003.77 311.36,-947.6 272.85,-904.94 252.89,-689 310.36,-689"/>
<polygon fill="black" stroke="black" points="660.96,-1227.37 650.14,-1225.56 655.8,-1228.73 651.61,-1229.83 651.61,-1229.83 651.61,-1229.83 655.8,-1228.73 652.43,-1234.27 660.96,-1227.37"/>
</g>
<!-- public.rooms -->
<g id="node6" class="node">
<title>public.rooms</title>
<polygon fill="#efefef" stroke="none" points="1045.55,-351.2 1045.55,-397.2 1592.62,-397.2 1592.62,-351.2 1045.55,-351.2"/>
<polygon fill="none" stroke="black" points="1045.55,-351.2 1045.55,-397.2 1592.62,-397.2 1592.62,-351.2 1045.55,-351.2"/>
<text text-anchor="start" x="1209.59" y="-375" font-family="Arial Bold" font-size="18.00">public.rooms</text>
<text text-anchor="start" x="1304.08" y="-375" font-family="Arial" font-size="14.00">    </text>
<text text-anchor="start" x="1335.2" y="-375" font-family="Arial" font-size="14.00" fill="#666666">[BASE TABLE]</text>
<text text-anchor="start" x="1125.74" y="-360.6" font-family="Arial" font-size="14.00" fill="#333333">対局ルームの設定・状態を保持する。host_seat_id がホスト席の正本。</text>
<polygon fill="none" stroke="black" points="1045.55,-320.4 1045.55,-351.2 1592.62,-351.2 1592.62,-320.4 1045.55,-320.4"/>
<text text-anchor="start" x="1052.55" y="-332.6" font-family="Arial" font-size="14.00">created_at </text>
<text text-anchor="start" x="1122.6" y="-332.6" font-family="Arial" font-size="14.00" fill="#666666">[timestamp with time zone]</text>
<polygon fill="none" stroke="black" points="1045.55,-289.6 1045.55,-320.4 1592.62,-320.4 1592.62,-289.6 1045.55,-289.6"/>
<text text-anchor="start" x="1052.55" y="-301.8" font-family="Arial" font-size="14.00">host_seat_id </text>
<text text-anchor="start" x="1135.83" y="-301.8" font-family="Arial" font-size="14.00" fill="#666666">[uuid]</text>
<text text-anchor="start" x="1170.08" y="-301.8" font-family="Arial" font-size="14.00"> Host seat UUID.</text>
<polygon fill="none" stroke="black" points="1045.55,-258.8 1045.55,-289.6 1592.62,-289.6 1592.62,-258.8 1045.55,-258.8"/>
<text text-anchor="start" x="1052.55" y="-271" font-family="Arial" font-size="14.00">id </text>
<text text-anchor="start" x="1067.33" y="-271" font-family="Arial" font-size="14.00" fill="#666666">[uuid]</text>
<polygon fill="none" stroke="black" points="1045.55,-228 1045.55,-258.8 1592.62,-258.8 1592.62,-228 1045.55,-228"/>
<text text-anchor="start" x="1052.55" y="-240.2" font-family="Arial" font-size="14.00">last_activity_at </text>
<text text-anchor="start" x="1148.26" y="-240.2" font-family="Arial" font-size="14.00" fill="#666666">[timestamp with time zone]</text>
<polygon fill="none" stroke="black" points="1045.55,-197.2 1045.55,-228 1592.62,-228 1592.62,-197.2 1045.55,-197.2"/>
<text text-anchor="start" x="1052.55" y="-209.4" font-family="Arial" font-size="14.00">name </text>
<text text-anchor="start" x="1091.46" y="-209.4" font-family="Arial" font-size="14.00" fill="#666666">[varchar(255)]</text>
<polygon fill="none" stroke="black" points="1045.55,-166.4 1045.55,-197.2 1592.62,-197.2 1592.62,-166.4 1045.55,-166.4"/>
<text text-anchor="start" x="1052.55" y="-178.6" font-family="Arial" font-size="14.00">settings </text>
<text text-anchor="start" x="1104.69" y="-178.6" font-family="Arial" font-size="14.00" fill="#666666">[jsonb]</text>
<polygon fill="none" stroke="black" points="1045.55,-135.6 1045.55,-166.4 1592.62,-166.4 1592.62,-135.6 1045.55,-135.6"/>
<text text-anchor="start" x="1052.55" y="-147.8" font-family="Arial" font-size="14.00">status </text>
<text text-anchor="start" x="1093.79" y="-147.8" font-family="Arial" font-size="14.00" fill="#666666">[room_status]</text>
<polygon fill="none" stroke="black" points="1045.55,-104.8 1045.55,-135.6 1592.62,-135.6 1592.62,-104.8 1045.55,-104.8"/>
<text text-anchor="start" x="1052.55" y="-117" font-family="Arial" font-size="14.00">updated_at </text>
<text text-anchor="start" x="1126.51" y="-117" font-family="Arial" font-size="14.00" fill="#666666">[timestamp with time zone]</text>
</g>
<!-- public.game_states&#45;&gt;public.rooms -->
<g id="edge10" class="edge">
<title>public.game_states:room_id&#45;&gt;public.rooms:id</title>
<path fill="none" stroke="black" d="M35.11,-1228.3C-60.43,-1193.56 111.5,-636.18 259.08,-538 327.16,-492.71 931.59,-554.73 994.08,-502 1073.34,-435.13 940.85,-274.2 1044.55,-274.2"/>
<polygon fill="black" stroke="black" points="35.01,-1228.29 44.12,-1234.38 40.27,-1229.17 44.54,-1229.89 44.54,-1229.89 44.54,-1229.89 40.27,-1229.17 45.62,-1225.51 35.01,-1228.29"/>
</g>
<!-- public.room_players&#45;&gt;public.rooms -->
<g id="edge6" class="edge">
<title>public.room_players:room_id&#45;&gt;public.rooms:id</title>
<path fill="none" stroke="black" d="M1239.93,-688.18C1293.26,-678.87 1261.64,-592.28 1228.8,-538 1181.04,-459.04 1093.29,-519.37 1045.55,-440.4 1007.34,-377.18 970.68,-274.2 1044.55,-274.2"/>
<polygon fill="black" stroke="black" points="1240.1,-688.17 1229.77,-684.49 1234.79,-688.6 1230.47,-688.95 1230.47,-688.95 1230.47,-688.95 1234.79,-688.6 1230.5,-693.46 1240.1,-688.17"/>
</g>
<!-- public.user_profiles -->
<g id="node7" class="node">
<title>public.user_profiles</title>
<polygon fill="#efefef" stroke="none" points="422.62,-412.8 422.62,-458.8 941.54,-458.8 941.54,-412.8 422.62,-412.8"/>
<polygon fill="none" stroke="black" points="422.62,-412.8 422.62,-458.8 941.54,-458.8 941.54,-412.8 422.62,-412.8"/>
<text text-anchor="start" x="548.11" y="-436.6" font-family="Arial Bold" font-size="18.00">public.user_profiles</text>
<text text-anchor="start" x="691.57" y="-436.6" font-family="Arial" font-size="14.00">    </text>
<text text-anchor="start" x="722.69" y="-436.6" font-family="Arial" font-size="14.00" fill="#666666">[BASE TABLE]</text>
<text text-anchor="start" x="429.62" y="-422.2" font-family="Arial" font-size="14.00" fill="#333333">アプリケーションで表示・集計に使うユーザープロフィール。auth.users と 1:1 で対応する。</text>
<polygon fill="none" stroke="black" points="422.62,-382 422.62,-412.8 941.54,-412.8 941.54,-382 422.62,-382"/>
<text text-anchor="start" x="429.62" y="-394.2" font-family="Arial" font-size="14.00">account_deletion_started_at </text>
<text text-anchor="start" x="609.42" y="-394.2" font-family="Arial" font-size="14.00" fill="#666666">[timestamp with time zone]</text>
<polygon fill="none" stroke="black" points="422.62,-351.2 422.62,-382 941.54,-382 941.54,-351.2 422.62,-351.2"/>
<text text-anchor="start" x="429.62" y="-363.4" font-family="Arial" font-size="14.00">avatar_url </text>
<text text-anchor="start" x="495.77" y="-363.4" font-family="Arial" font-size="14.00" fill="#666666">[text]</text>
<polygon fill="none" stroke="black" points="422.62,-320.4 422.62,-351.2 941.54,-351.2 941.54,-320.4 422.62,-320.4"/>
<text text-anchor="start" x="429.62" y="-332.6" font-family="Arial" font-size="14.00">created_at </text>
<text text-anchor="start" x="499.67" y="-332.6" font-family="Arial" font-size="14.00" fill="#666666">[timestamp with time zone]</text>
<polygon fill="none" stroke="black" points="422.62,-289.6 422.62,-320.4 941.54,-320.4 941.54,-289.6 422.62,-289.6"/>
<text text-anchor="start" x="429.62" y="-301.8" font-family="Arial" font-size="14.00">display_name </text>
<text text-anchor="start" x="519.9" y="-301.8" font-family="Arial" font-size="14.00" fill="#666666">[varchar(100)]</text>
<polygon fill="none" stroke="black" points="422.62,-258.8 422.62,-289.6 941.54,-289.6 941.54,-258.8 422.62,-258.8"/>
<text text-anchor="start" x="429.62" y="-271" font-family="Arial" font-size="14.00">games_played </text>
<text text-anchor="start" x="524.58" y="-271" font-family="Arial" font-size="14.00" fill="#666666">[integer]</text>
<polygon fill="none" stroke="black" points="422.62,-228 422.62,-258.8 941.54,-258.8 941.54,-228 422.62,-228"/>
<text text-anchor="start" x="429.62" y="-240.2" font-family="Arial" font-size="14.00">games_won </text>
<text text-anchor="start" x="509" y="-240.2" font-family="Arial" font-size="14.00" fill="#666666">[integer]</text>
<polygon fill="none" stroke="black" points="422.62,-197.2 422.62,-228 941.54,-228 941.54,-197.2 422.62,-197.2"/>
<text text-anchor="start" x="429.62" y="-209.4" font-family="Arial" font-size="14.00">id </text>
<text text-anchor="start" x="444.41" y="-209.4" font-family="Arial" font-size="14.00" fill="#666666">[uuid]</text>
<polygon fill="none" stroke="black" points="422.62,-166.4 422.62,-197.2 941.54,-197.2 941.54,-166.4 422.62,-166.4"/>
<text text-anchor="start" x="429.62" y="-178.6" font-family="Arial" font-size="14.00">last_seen_at </text>
<text text-anchor="start" x="512.91" y="-178.6" font-family="Arial" font-size="14.00" fill="#666666">[timestamp with time zone]</text>
<polygon fill="none" stroke="black" points="422.62,-135.6 422.62,-166.4 941.54,-166.4 941.54,-135.6 422.62,-135.6"/>
<text text-anchor="start" x="429.62" y="-147.8" font-family="Arial" font-size="14.00">preferences </text>
<text text-anchor="start" x="507.44" y="-147.8" font-family="Arial" font-size="14.00" fill="#666666">[jsonb]</text>
<polygon fill="none" stroke="black" points="422.62,-104.8 422.62,-135.6 941.54,-135.6 941.54,-104.8 422.62,-104.8"/>
<text text-anchor="start" x="429.62" y="-117" font-family="Arial" font-size="14.00">total_score </text>
<text text-anchor="start" x="502" y="-117" font-family="Arial" font-size="14.00" fill="#666666">[numeric(10,1)]</text>
<polygon fill="none" stroke="black" points="422.62,-74 422.62,-104.8 941.54,-104.8 941.54,-74 422.62,-74"/>
<text text-anchor="start" x="429.62" y="-86.2" font-family="Arial" font-size="14.00">updated_at </text>
<text text-anchor="start" x="503.58" y="-86.2" font-family="Arial" font-size="14.00" fill="#666666">[timestamp with time zone]</text>
<polygon fill="none" stroke="black" points="422.62,-43.2 422.62,-74 941.54,-74 941.54,-43.2 422.62,-43.2"/>
<text text-anchor="start" x="429.62" y="-55.4" font-family="Arial" font-size="14.00">username </text>
<text text-anchor="start" x="495.77" y="-55.4" font-family="Arial" font-size="14.00" fill="#666666">[varchar(50)]</text>
</g>
<!-- public.room_players&#45;&gt;public.user_profiles -->
<g id="edge7" class="edge">
<title>public.room_players:user_id&#45;&gt;public.user_profiles:id</title>
<path fill="none" stroke="black" d="M770.83,-569.85C781.24,-502.97 898.16,-569.21 941.54,-502 976.42,-447.97 1006.85,-212.6 942.54,-212.6"/>
<polygon fill="black" stroke="black" points="770.82,-569.89 765.62,-579.54 770.44,-575.21 770.13,-579.53 770.13,-579.53 770.13,-579.53 770.44,-575.21 774.59,-580.19 770.82,-569.89"/>
</g>
<!-- public.active_room_memberships -->
<g id="node3" class="node">
<title>public.active_room_memberships</title>
<polygon fill="#efefef" stroke="none" points="795.36,-1353.2 795.36,-1399.2 1266.81,-1399.2 1266.81,-1353.2 795.36,-1353.2"/>
<polygon fill="none" stroke="black" points="795.36,-1353.2 795.36,-1399.2 1266.81,-1399.2 1266.81,-1353.2 795.36,-1353.2"/>
<text text-anchor="start" x="846.62" y="-1377" font-family="Arial Bold" font-size="18.00">public.active_room_memberships</text>
<text text-anchor="start" x="1091.06" y="-1377" font-family="Arial" font-size="14.00">    </text>
<text text-anchor="start" x="1122.18" y="-1377" font-family="Arial" font-size="14.00" fill="#666666">[BASE TABLE]</text>
<text text-anchor="start" x="802.36" y="-1362.6" font-family="Arial" font-size="14.00" fill="#333333">認証ユーザーが現在保持しているルーム所属リース。seat_id で実際の席を参照する。</text>
<polygon fill="none" stroke="black" points="795.36,-1322.4 795.36,-1353.2 1266.81,-1353.2 1266.81,-1322.4 795.36,-1322.4"/>
<text text-anchor="start" x="802.36" y="-1334.6" font-family="Arial" font-size="14.00">created_at </text>
<text text-anchor="start" x="872.41" y="-1334.6" font-family="Arial" font-size="14.00" fill="#666666">[timestamp with time zone]</text>
<polygon fill="none" stroke="black" points="795.36,-1291.6 795.36,-1322.4 1266.81,-1322.4 1266.81,-1291.6 795.36,-1291.6"/>
<text text-anchor="start" x="802.36" y="-1303.8" font-family="Arial" font-size="14.00">last_seen_at </text>
<text text-anchor="start" x="885.64" y="-1303.8" font-family="Arial" font-size="14.00" fill="#666666">[timestamp with time zone]</text>
<polygon fill="none" stroke="black" points="795.36,-1260.8 795.36,-1291.6 1266.81,-1291.6 1266.81,-1260.8 795.36,-1260.8"/>
<text text-anchor="start" x="802.36" y="-1273" font-family="Arial" font-size="14.00">membership_version </text>
<text text-anchor="start" x="936.19" y="-1273" font-family="Arial" font-size="14.00" fill="#666666">[bigint]</text>
<polygon fill="none" stroke="black" points="795.36,-1230 795.36,-1260.8 1266.81,-1260.8 1266.81,-1230 795.36,-1230"/>
<text text-anchor="start" x="802.36" y="-1242.2" font-family="Arial" font-size="14.00">room_id </text>
<text text-anchor="start" x="856.83" y="-1242.2" font-family="Arial" font-size="14.00" fill="#666666">[uuid]</text>
<polygon fill="none" stroke="black" points="795.36,-1199.2 795.36,-1230 1266.81,-1230 1266.81,-1199.2 795.36,-1199.2"/>
<text text-anchor="start" x="802.36" y="-1211.4" font-family="Arial" font-size="14.00">seat_id </text>
<text text-anchor="start" x="851.39" y="-1211.4" font-family="Arial" font-size="14.00" fill="#666666">[uuid]</text>
<polygon fill="none" stroke="black" points="795.36,-1168.4 795.36,-1199.2 1266.81,-1199.2 1266.81,-1168.4 795.36,-1168.4"/>
<text text-anchor="start" x="802.36" y="-1180.6" font-family="Arial" font-size="14.00">status </text>
<text text-anchor="start" x="843.6" y="-1180.6" font-family="Arial" font-size="14.00" fill="#666666">[active_room_membership_status]</text>
<polygon fill="none" stroke="black" points="795.36,-1137.6 795.36,-1168.4 1266.81,-1168.4 1266.81,-1137.6 795.36,-1137.6"/>
<text text-anchor="start" x="802.36" y="-1149.8" font-family="Arial" font-size="14.00">transition_id </text>
<text text-anchor="start" x="881.74" y="-1149.8" font-family="Arial" font-size="14.00" fill="#666666">[uuid]</text>
<polygon fill="none" stroke="black" points="795.36,-1106.8 795.36,-1137.6 1266.81,-1137.6 1266.81,-1106.8 795.36,-1106.8"/>
<text text-anchor="start" x="802.36" y="-1119" font-family="Arial" font-size="14.00">updated_at </text>
<text text-anchor="start" x="876.32" y="-1119" font-family="Arial" font-size="14.00" fill="#666666">[timestamp with time zone]</text>
<polygon fill="none" stroke="black" points="795.36,-1076 795.36,-1106.8 1266.81,-1106.8 1266.81,-1076 795.36,-1076"/>
<text text-anchor="start" x="802.36" y="-1088.2" font-family="Arial" font-size="14.00">user_id </text>
<text text-anchor="start" x="852.16" y="-1088.2" font-family="Arial" font-size="14.00" fill="#666666">[uuid]</text>
</g>
<!-- public.active_room_memberships&#45;&gt;public.room_players -->
<g id="edge2" class="edge">
<title>public.active_room_memberships:room_id&#45;&gt;public.room_players:room_id</title>
<path fill="none" stroke="black" d="M784.46,-1242.32C750.02,-1218.72 767.61,-1066.37 795.36,-1032.8 920.44,-881.47 1103.79,-1098.98 1228.8,-947.6 1265.4,-903.29 1287.27,-689 1229.8,-689"/>
<polygon fill="black" stroke="black" points="784.49,-1242.33 792.7,-1249.6 789.58,-1243.92 793.72,-1245.2 793.72,-1245.2 793.72,-1245.2 789.58,-1243.92 795.37,-1241 784.49,-1242.33"/>
</g>
<!-- public.active_room_memberships&#45;&gt;public.rooms -->
<g id="edge11" class="edge">
<title>public.active_room_memberships:room_id&#45;&gt;public.rooms:id</title>
<path fill="none" stroke="black" d="M1275.19,-1238.1C1310.3,-1166.59 1317.68,-592.78 1281.08,-538 1218.14,-443.78 1108.78,-534.43 1045.55,-440.4 1004.33,-379.1 970.68,-274.2 1044.55,-274.2"/>
<polygon fill="black" stroke="black" points="1275.15,-1238.13 1264.88,-1241.96 1271.36,-1241.88 1268.28,-1244.93 1268.28,-1244.93 1268.28,-1244.93 1271.36,-1241.88 1271.21,-1248.36 1275.15,-1238.13"/>
</g>
<!-- public.game_history -->
<g id="node4" class="node">
<title>public.game_history</title>
<polygon fill="#efefef" stroke="none" points="377.02,-1817.2 377.02,-1863.2 1071.15,-1863.2 1071.15,-1817.2 377.02,-1817.2"/>
<polygon fill="none" stroke="black" points="377.02,-1817.2 377.02,-1863.2 1071.15,-1863.2 1071.15,-1817.2 377.02,-1817.2"/>
<text text-anchor="start" x="588.1" y="-1841" font-family="Arial Bold" font-size="18.00">public.game_history</text>
<text text-anchor="start" x="735.57" y="-1841" font-family="Arial" font-size="14.00">    </text>
<text text-anchor="start" x="766.69" y="-1841" font-family="Arial" font-size="14.00" fill="#666666">[BASE TABLE]</text>
<text text-anchor="start" x="478.61" y="-1826.6" font-family="Arial" font-size="14.00" fill="#333333">リプレイと戦績表示に使うイベント履歴。actor_seat_id と表示用 snapshot を保持する。</text>
<polygon fill="none" stroke="black" points="377.02,-1786.4 377.02,-1817.2 1071.15,-1817.2 1071.15,-1786.4 377.02,-1786.4"/>
<text text-anchor="start" x="384.02" y="-1798.6" font-family="Arial" font-size="14.00">action_data </text>
<text text-anchor="start" x="460.3" y="-1798.6" font-family="Arial" font-size="14.00" fill="#666666">[jsonb]</text>
<polygon fill="none" stroke="black" points="377.02,-1755.6 377.02,-1786.4 1071.15,-1786.4 1071.15,-1755.6 377.02,-1755.6"/>
<text text-anchor="start" x="384.02" y="-1767.8" font-family="Arial" font-size="14.00">action_type </text>
<text text-anchor="start" x="459.51" y="-1767.8" font-family="Arial" font-size="14.00" fill="#666666">[varchar(100)]</text>
<polygon fill="none" stroke="black" points="377.02,-1724.8 377.02,-1755.6 1071.15,-1755.6 1071.15,-1724.8 377.02,-1724.8"/>
<text text-anchor="start" x="384.02" y="-1737" font-family="Arial" font-size="14.00">actor_key_snapshot </text>
<text text-anchor="start" x="513.21" y="-1737" font-family="Arial" font-size="14.00" fill="#666666">[text]</text>
<text text-anchor="start" x="543.55" y="-1737" font-family="Arial" font-size="14.00"> Immutable actor key snapshot retained when an actor seat is unavailable.</text>
<polygon fill="none" stroke="black" points="377.02,-1694 377.02,-1724.8 1071.15,-1724.8 1071.15,-1694 377.02,-1694"/>
<text text-anchor="start" x="384.02" y="-1706.2" font-family="Arial" font-size="14.00">actor_seat_id </text>
<text text-anchor="start" x="471.96" y="-1706.2" font-family="Arial" font-size="14.00" fill="#666666">[uuid]</text>
<text text-anchor="start" x="506.21" y="-1706.2" font-family="Arial" font-size="14.00"> Actor seat UUID when the action is tied to a room seat.</text>
<polygon fill="none" stroke="black" points="377.02,-1663.2 377.02,-1694 1071.15,-1694 1071.15,-1663.2 377.02,-1663.2"/>
<text text-anchor="start" x="384.02" y="-1675.4" font-family="Arial" font-size="14.00">game_state_id </text>
<text text-anchor="start" x="479.75" y="-1675.4" font-family="Arial" font-size="14.00" fill="#666666">[uuid]</text>
<polygon fill="none" stroke="black" points="377.02,-1632.4 377.02,-1663.2 1071.15,-1663.2 1071.15,-1632.4 377.02,-1632.4"/>
<text text-anchor="start" x="384.02" y="-1644.6" font-family="Arial" font-size="14.00">id </text>
<text text-anchor="start" x="398.8" y="-1644.6" font-family="Arial" font-size="14.00" fill="#666666">[uuid]</text>
<polygon fill="none" stroke="black" points="377.02,-1601.6 377.02,-1632.4 1071.15,-1632.4 1071.15,-1601.6 377.02,-1601.6"/>
<text text-anchor="start" x="384.02" y="-1613.8" font-family="Arial" font-size="14.00">room_id </text>
<text text-anchor="start" x="438.49" y="-1613.8" font-family="Arial" font-size="14.00" fill="#666666">[uuid]</text>
<polygon fill="none" stroke="black" points="377.02,-1570.8 377.02,-1601.6 1071.15,-1601.6 1071.15,-1570.8 377.02,-1570.8"/>
<text text-anchor="start" x="384.02" y="-1583" font-family="Arial" font-size="14.00">timestamp </text>
<text text-anchor="start" x="452.48" y="-1583" font-family="Arial" font-size="14.00" fill="#666666">[timestamp with time zone]</text>
</g>
<!-- public.game_history&#45;&gt;public.game_states -->
<g id="edge8" class="edge">
<title>public.game_history:game_state_id&#45;&gt;public.game_states:id</title>
<path fill="none" stroke="black" d="M365.81,-1677.72C311.56,-1667.74 335.04,-1575.16 377.02,-1527.6 457.99,-1435.86 569.07,-1583.4 649.96,-1491.6 708.73,-1424.91 739.85,-1291.6 650.96,-1291.6"/>
<polygon fill="black" stroke="black" points="365.72,-1677.71 375.3,-1683.05 371.04,-1678.17 375.35,-1678.54 375.35,-1678.54 375.35,-1678.54 371.04,-1678.17 376.07,-1674.09 365.72,-1677.71"/>
</g>
<!-- public.game_history&#45;&gt;public.room_players -->
<g id="edge3" class="edge">
<title>public.game_history:room_id&#45;&gt;public.room_players:room_id</title>
<path fill="none" stroke="black" d="M1082.29,-1615.37C1109.02,-1605.58 1095.23,-1554.17 1071.15,-1527.6 1021.89,-1473.26 794.04,-1544.35 743.08,-1491.6 664.43,-1410.18 784.47,-1064.31 705.08,-983.6 643.47,-920.96 370.71,-1012.38 311.36,-947.6 272.54,-905.23 252.89,-689 310.36,-689"/>
<polygon fill="black" stroke="black" points="1082.35,-1615.36 1071.76,-1612.5 1077.08,-1616.21 1072.81,-1616.89 1072.81,-1616.89 1072.81,-1616.89 1077.08,-1616.21 1073.19,-1621.39 1082.35,-1615.36"/>
</g>
<!-- public.game_history&#45;&gt;public.rooms -->
<g id="edge9" class="edge">
<title>public.game_history:room_id&#45;&gt;public.rooms:id</title>
<path fill="none" stroke="black" d="M1082.44,-1616.94C1198.39,-1615.64 1252.76,-1591.13 1319.08,-1491.6 1350.47,-1444.5 1351.07,-1039.88 1357.08,-983.6 1378.33,-784.78 1306.45,-703.21 1419.08,-538 1468.93,-464.89 1547.71,-516.65 1592.62,-440.4 1630.1,-376.75 1667.48,-274.2 1593.62,-274.2"/>
<polygon fill="black" stroke="black" points="1082.48,-1616.94 1072.46,-1612.5 1077.15,-1616.97 1072.81,-1617 1072.81,-1617 1072.81,-1617 1077.15,-1616.97 1072.51,-1621.5 1082.48,-1616.94"/>
</g>
<!-- public.room_membership_events -->
<g id="node5" class="node">
<title>public.room_membership_events</title>
<polygon fill="#efefef" stroke="none" points="1408.91,-1368.6 1408.91,-1414.6 1919.26,-1414.6 1919.26,-1368.6 1408.91,-1368.6"/>
<polygon fill="none" stroke="black" points="1408.91,-1368.6 1408.91,-1414.6 1919.26,-1414.6 1919.26,-1368.6 1408.91,-1368.6"/>
<text text-anchor="start" x="1481.61" y="-1392.4" font-family="Arial Bold" font-size="18.00">public.room_membership_events</text>
<text text-anchor="start" x="1722.06" y="-1392.4" font-family="Arial" font-size="14.00">    </text>
<text text-anchor="start" x="1753.18" y="-1392.4" font-family="Arial" font-size="14.00" fill="#666666">[BASE TABLE]</text>
<text text-anchor="start" x="1415.91" y="-1378" font-family="Arial" font-size="14.00" fill="#333333">ルーム所属リースの遷移を追跡する監査イベント。席削除後も snapshot とイベントを残す。</text>
<polygon fill="none" stroke="black" points="1408.91,-1337.8 1408.91,-1368.6 1919.26,-1368.6 1919.26,-1337.8 1408.91,-1337.8"/>
<text text-anchor="start" x="1415.91" y="-1350" font-family="Arial" font-size="14.00">created_at </text>
<text text-anchor="start" x="1485.95" y="-1350" font-family="Arial" font-size="14.00" fill="#666666">[timestamp with time zone]</text>
<polygon fill="none" stroke="black" points="1408.91,-1307 1408.91,-1337.8 1919.26,-1337.8 1919.26,-1307 1408.91,-1307"/>
<text text-anchor="start" x="1415.91" y="-1319.2" font-family="Arial" font-size="14.00">event_type </text>
<text text-anchor="start" x="1488.29" y="-1319.2" font-family="Arial" font-size="14.00" fill="#666666">[text]</text>
<polygon fill="none" stroke="black" points="1408.91,-1276.2 1408.91,-1307 1919.26,-1307 1919.26,-1276.2 1408.91,-1276.2"/>
<text text-anchor="start" x="1415.91" y="-1288.4" font-family="Arial" font-size="14.00">from_room_id </text>
<text text-anchor="start" x="1506.16" y="-1288.4" font-family="Arial" font-size="14.00" fill="#666666">[uuid]</text>
<polygon fill="none" stroke="black" points="1408.91,-1245.4 1408.91,-1276.2 1919.26,-1276.2 1919.26,-1245.4 1408.91,-1245.4"/>
<text text-anchor="start" x="1415.91" y="-1257.6" font-family="Arial" font-size="14.00">id </text>
<text text-anchor="start" x="1430.69" y="-1257.6" font-family="Arial" font-size="14.00" fill="#666666">[bigint]</text>
<polygon fill="none" stroke="black" points="1408.91,-1214.6 1408.91,-1245.4 1919.26,-1245.4 1919.26,-1214.6 1408.91,-1214.6"/>
<text text-anchor="start" x="1415.91" y="-1226.8" font-family="Arial" font-size="14.00">membership_version </text>
<text text-anchor="start" x="1549.74" y="-1226.8" font-family="Arial" font-size="14.00" fill="#666666">[bigint]</text>
<polygon fill="none" stroke="black" points="1408.91,-1183.8 1408.91,-1214.6 1919.26,-1214.6 1919.26,-1183.8 1408.91,-1183.8"/>
<text text-anchor="start" x="1415.91" y="-1196" font-family="Arial" font-size="14.00">metadata </text>
<text text-anchor="start" x="1478.17" y="-1196" font-family="Arial" font-size="14.00" fill="#666666">[jsonb]</text>
<polygon fill="none" stroke="black" points="1408.91,-1153 1408.91,-1183.8 1919.26,-1183.8 1919.26,-1153 1408.91,-1153"/>
<text text-anchor="start" x="1415.91" y="-1165.2" font-family="Arial" font-size="14.00">seat_id </text>
<text text-anchor="start" x="1464.94" y="-1165.2" font-family="Arial" font-size="14.00" fill="#666666">[uuid]</text>
<polygon fill="none" stroke="black" points="1408.91,-1122.2 1408.91,-1153 1919.26,-1153 1919.26,-1122.2 1408.91,-1122.2"/>
<text text-anchor="start" x="1415.91" y="-1134.4" font-family="Arial" font-size="14.00">to_room_id </text>
<text text-anchor="start" x="1489.84" y="-1134.4" font-family="Arial" font-size="14.00" fill="#666666">[uuid]</text>
<polygon fill="none" stroke="black" points="1408.91,-1091.4 1408.91,-1122.2 1919.26,-1122.2 1919.26,-1091.4 1408.91,-1091.4"/>
<text text-anchor="start" x="1415.91" y="-1103.6" font-family="Arial" font-size="14.00">transition_id </text>
<text text-anchor="start" x="1495.29" y="-1103.6" font-family="Arial" font-size="14.00" fill="#666666">[uuid]</text>
<polygon fill="none" stroke="black" points="1408.91,-1060.6 1408.91,-1091.4 1919.26,-1091.4 1919.26,-1060.6 1408.91,-1060.6"/>
<text text-anchor="start" x="1415.91" y="-1072.8" font-family="Arial" font-size="14.00">user_id </text>
<text text-anchor="start" x="1465.71" y="-1072.8" font-family="Arial" font-size="14.00" fill="#666666">[uuid]</text>
</g>
<!-- public.room_membership_events&#45;&gt;public.room_players -->
<g id="edge4" class="edge">
<title>public.room_membership_events:seat_id&#45;&gt;public.room_players:id</title>
<path fill="none" stroke="black" d="M1397.84,-1167.93C1320.28,-1160.23 1361.59,-1060.16 1319.08,-983.6 1283.15,-918.89 1303.83,-843 1229.8,-843"/>
<polygon fill="black" stroke="black" points="1397.58,-1167.91 1407.36,-1172.88 1402.91,-1168.16 1407.24,-1168.37 1407.24,-1168.37 1407.24,-1168.37 1402.91,-1168.16 1407.78,-1163.89 1397.58,-1167.91"/>
</g>
<!-- public.room_membership_events&#45;&gt;public.rooms -->
<g id="edge12" class="edge">
<title>public.room_membership_events:from_room_id&#45;&gt;public.rooms:id</title>
<path fill="none" stroke="black" d="M1397.77,-1289.18C1353.36,-1265.45 1400.03,-1073.83 1408.91,-1017.4 1450.71,-751.54 1550.5,-706.21 1592.62,-440.4 1604.17,-367.44 1667.48,-274.2 1593.62,-274.2"/>
<polygon fill="black" stroke="black" points="1397.85,-1289.2 1406.54,-1295.9 1403.04,-1290.44 1407.26,-1291.44 1407.26,-1291.44 1407.26,-1291.44 1403.04,-1290.44 1408.63,-1287.15 1397.85,-1289.2"/>
</g>
<!-- public.room_membership_events&#45;&gt;public.rooms -->
<g id="edge13" class="edge">
<title>public.room_membership_events:to_room_id&#45;&gt;public.rooms:id</title>
<path fill="none" stroke="black" d="M1397.83,-1136.55C1358.58,-1127.45 1385.54,-1061.23 1408.91,-1017.4 1434.78,-968.87 1481.62,-994.04 1511.08,-947.6 1672.63,-693 1895.14,-274.2 1593.62,-274.2"/>
<polygon fill="black" stroke="black" points="1397.63,-1136.53 1407.11,-1142.04 1402.93,-1137.08 1407.24,-1137.53 1407.24,-1137.53 1407.24,-1137.53 1402.93,-1137.08 1408.04,-1133.09 1397.63,-1136.53"/>
</g>
<!-- public.rooms&#45;&gt;public.room_players -->
<g id="edge5" class="edge">
<title>public.rooms:id&#45;&gt;public.room_players:room_id</title>
<path fill="none" stroke="black" d="M1034.14,-274.98C974.41,-284.56 1009.28,-380.39 1045.55,-440.4 1093.29,-519.37 1181.04,-459.04 1228.8,-538 1263.54,-595.42 1296.92,-689 1229.8,-689"/>
<polygon fill="black" stroke="black" points="1034.24,-274.97 1044.55,-278.71 1039.56,-274.57 1043.88,-274.25 1043.88,-274.25 1043.88,-274.25 1039.56,-274.57 1043.88,-269.74 1034.24,-274.97"/>
</g>
</g>
</svg>
