<?xml version="1.0" encoding="UTF-8" standalone="no"?>
<!DOCTYPE svg PUBLIC "-//W3C//DTD SVG 1.1//EN"
 "http://www.w3.org/Graphics/SVG/1.1/DTD/svg11.dtd">
<!-- Generated by graphviz version 12.1.2 (20240928.0832)
 -->
<!-- Title: ソーシャルと通知 Pages: 1 -->
<svg width="1445pt" height="1784pt"
 viewBox="0.00 0.00 1445.00 1783.70" xmlns="http://www.w3.org/2000/svg" xmlns:xlink="http://www.w3.org/1999/xlink">
<g id="graph0" class="graph" transform="scale(1 1) rotate(0) translate(4 1779.7)">
<title>ソーシャルと通知</title>
<polygon fill="white" stroke="none" points="-4,4 -4,-1779.7 1441,-1779.7 1441,4 -4,4"/>
<g id="clust1" class="cluster">
<title>cluster_group_0</title>
<path fill="none" stroke="#1f91be" stroke-width="2" d="M20,-574.2C20,-574.2 791,-574.2 791,-574.2 797,-574.2 803,-580.2 803,-586.2 803,-586.2 803,-1519.8 803,-1519.8 803,-1525.8 797,-1531.8 791,-1531.8 791,-1531.8 20,-1531.8 20,-1531.8 14,-1531.8 8,-1525.8 8,-1519.8 8,-1519.8 8,-586.2 8,-586.2 8,-580.2 14,-574.2 20,-574.2"/>
<text text-anchor="middle" x="405.5" y="-1515.2" font-family="Arial" font-size="14.00">チャット</text>
</g>
<g id="clust2" class="cluster">
<title>cluster_group_1</title>
<path fill="none" stroke="#b2cf3e" stroke-width="2" d="M823,-558.8C823,-558.8 1417,-558.8 1417,-558.8 1423,-558.8 1429,-564.8 1429,-570.8 1429,-570.8 1429,-1658.4 1429,-1658.4 1429,-1664.4 1423,-1670.4 1417,-1670.4 1417,-1670.4 823,-1670.4 823,-1670.4 817,-1670.4 811,-1664.4 811,-1658.4 811,-1658.4 811,-570.8 811,-570.8 811,-564.8 817,-558.8 823,-558.8"/>
<text text-anchor="middle" x="1120" y="-1653.8" font-family="Arial" font-size="14.00">Push 通知</text>
</g>
<g id="clust3" class="cluster">
<title>cluster_group_2</title>
<path fill="none" stroke="#f0ba32" stroke-width="2" d="M398,-8C398,-8 996,-8 996,-8 1002,-8 1008,-14 1008,-20 1008,-20 1008,-538.8 1008,-538.8 1008,-544.8 1002,-550.8 996,-550.8 996,-550.8 398,-550.8 398,-550.8 392,-550.8 386,-544.8 386,-538.8 386,-538.8 386,-20 386,-20 386,-14 392,-8 398,-8"/>
<text text-anchor="middle" x="697" y="-534.2" font-family="Arial" font-size="14.00">通知先ユーザー</text>
</g>
<!-- public.chat_members -->
<g id="node1" class="node">
<title>public.chat_members</title>
<polygon fill="#efefef" stroke="none" points="59.53,-1379 59.53,-1425 352.47,-1425 352.47,-1379 59.53,-1379"/>
<polygon fill="none" stroke="black" points="59.53,-1379 59.53,-1425 352.47,-1425 352.47,-1379 59.53,-1379"/>
<text text-anchor="start" x="66.53" y="-1402.8" font-family="Arial Bold" font-size="18.00">public.chat_members</text>
<text text-anchor="start" x="220.98" y="-1402.8" font-family="Arial" font-size="14.00">    </text>
<text text-anchor="start" x="252.1" y="-1402.8" font-family="Arial" font-size="14.00" fill="#666666">[BASE TABLE]</text>
<text text-anchor="start" x="89.31" y="-1388.4" font-family="Arial" font-size="14.00" fill="#333333">チャットルームのメンバーシップとロール。</text>
<polygon fill="none" stroke="black" points="59.53,-1348.2 59.53,-1379 352.47,-1379 352.47,-1348.2 59.53,-1348.2"/>
<text text-anchor="start" x="66.53" y="-1360.4" font-family="Arial" font-size="14.00">id </text>
<text text-anchor="start" x="81.32" y="-1360.4" font-family="Arial" font-size="14.00" fill="#666666">[uuid]</text>
<polygon fill="none" stroke="black" points="59.53,-1317.4 59.53,-1348.2 352.47,-1348.2 352.47,-1317.4 59.53,-1317.4"/>
<text text-anchor="start" x="66.53" y="-1329.6" font-family="Arial" font-size="14.00">joined_at </text>
<text text-anchor="start" x="127.25" y="-1329.6" font-family="Arial" font-size="14.00" fill="#666666">[timestamp with time zone]</text>
<polygon fill="none" stroke="black" points="59.53,-1286.6 59.53,-1317.4 352.47,-1317.4 352.47,-1286.6 59.53,-1286.6"/>
<text text-anchor="start" x="66.53" y="-1298.8" font-family="Arial" font-size="14.00">role </text>
<text text-anchor="start" x="93.76" y="-1298.8" font-family="Arial" font-size="14.00" fill="#666666">[chat_member_role]</text>
<polygon fill="none" stroke="black" points="59.53,-1255.8 59.53,-1286.6 352.47,-1286.6 352.47,-1255.8 59.53,-1255.8"/>
<text text-anchor="start" x="66.53" y="-1268" font-family="Arial" font-size="14.00">room_id </text>
<text text-anchor="start" x="121" y="-1268" font-family="Arial" font-size="14.00" fill="#666666">[uuid]</text>
<polygon fill="none" stroke="black" points="59.53,-1225 59.53,-1255.8 352.47,-1255.8 352.47,-1225 59.53,-1225"/>
<text text-anchor="start" x="66.53" y="-1237.2" font-family="Arial" font-size="14.00">user_id </text>
<text text-anchor="start" x="116.34" y="-1237.2" font-family="Arial" font-size="14.00" fill="#666666">[uuid]</text>
</g>
<!-- public.chat_rooms -->
<g id="node3" class="node">
<title>public.chat_rooms</title>
<polygon fill="#efefef" stroke="none" points="258.47,-871.8 258.47,-917.8 587.53,-917.8 587.53,-871.8 258.47,-871.8"/>
<polygon fill="none" stroke="black" points="258.47,-871.8 258.47,-917.8 587.53,-917.8 587.53,-871.8 258.47,-871.8"/>
<text text-anchor="start" x="294.02" y="-895.6" font-family="Arial Bold" font-size="18.00">public.chat_rooms</text>
<text text-anchor="start" x="427.49" y="-895.6" font-family="Arial" font-size="14.00">    </text>
<text text-anchor="start" x="458.61" y="-895.6" font-family="Arial" font-size="14.00" fill="#666666">[BASE TABLE]</text>
<text text-anchor="start" x="265.47" y="-881.2" font-family="Arial" font-size="14.00" fill="#333333">グローバル、ロビー、卓、プライベートのチャットルーム。</text>
<polygon fill="none" stroke="black" points="258.47,-841 258.47,-871.8 587.53,-871.8 587.53,-841 258.47,-841"/>
<text text-anchor="start" x="265.47" y="-853.2" font-family="Arial" font-size="14.00">created_at </text>
<text text-anchor="start" x="335.52" y="-853.2" font-family="Arial" font-size="14.00" fill="#666666">[timestamp with time zone]</text>
<polygon fill="none" stroke="black" points="258.47,-810.2 258.47,-841 587.53,-841 587.53,-810.2 258.47,-810.2"/>
<text text-anchor="start" x="265.47" y="-822.4" font-family="Arial" font-size="14.00">id </text>
<text text-anchor="start" x="280.26" y="-822.4" font-family="Arial" font-size="14.00" fill="#666666">[uuid]</text>
<polygon fill="none" stroke="black" points="258.47,-779.4 258.47,-810.2 587.53,-810.2 587.53,-779.4 258.47,-779.4"/>
<text text-anchor="start" x="265.47" y="-791.6" font-family="Arial" font-size="14.00">message_ttl_hours </text>
<text text-anchor="start" x="387.65" y="-791.6" font-family="Arial" font-size="14.00" fill="#666666">[integer]</text>
<polygon fill="none" stroke="black" points="258.47,-748.6 258.47,-779.4 587.53,-779.4 587.53,-748.6 258.47,-748.6"/>
<text text-anchor="start" x="265.47" y="-760.8" font-family="Arial" font-size="14.00">name </text>
<text text-anchor="start" x="304.38" y="-760.8" font-family="Arial" font-size="14.00" fill="#666666">[varchar(255)]</text>
<polygon fill="none" stroke="black" points="258.47,-717.8 258.47,-748.6 587.53,-748.6 587.53,-717.8 258.47,-717.8"/>
<text text-anchor="start" x="265.47" y="-730" font-family="Arial" font-size="14.00">owner_id </text>
<text text-anchor="start" x="326.17" y="-730" font-family="Arial" font-size="14.00" fill="#666666">[uuid]</text>
<polygon fill="none" stroke="black" points="258.47,-687 258.47,-717.8 587.53,-717.8 587.53,-687 258.47,-687"/>
<text text-anchor="start" x="265.47" y="-699.2" font-family="Arial" font-size="14.00">scope </text>
<text text-anchor="start" x="306.72" y="-699.2" font-family="Arial" font-size="14.00" fill="#666666">[chat_room_scope]</text>
<polygon fill="none" stroke="black" points="258.47,-656.2 258.47,-687 587.53,-687 587.53,-656.2 258.47,-656.2"/>
<text text-anchor="start" x="265.47" y="-668.4" font-family="Arial" font-size="14.00">updated_at </text>
<text text-anchor="start" x="339.43" y="-668.4" font-family="Arial" font-size="14.00" fill="#666666">[timestamp with time zone]</text>
<polygon fill="none" stroke="black" points="258.47,-625.4 258.47,-656.2 587.53,-656.2 587.53,-625.4 258.47,-625.4"/>
<text text-anchor="start" x="265.47" y="-637.6" font-family="Arial" font-size="14.00">visibility </text>
<text text-anchor="start" x="317.59" y="-637.6" font-family="Arial" font-size="14.00" fill="#666666">[chat_room_visibility]</text>
</g>
<!-- public.chat_members&#45;&gt;public.chat_rooms -->
<g id="edge1" class="edge">
<title>public.chat_members:room_id&#45;&gt;public.chat_rooms:id</title>
<path fill="none" stroke="black" d="M363.77,-1270.77C538.18,-1255.24 58.54,-825.6 257.47,-825.6"/>
<polygon fill="black" stroke="black" points="363.8,-1270.77 353.62,-1266.69 358.47,-1270.99 354.14,-1271.17 354.14,-1271.17 354.14,-1271.17 358.47,-1270.99 353.99,-1275.68 363.8,-1270.77"/>
</g>
<!-- public.user_profiles -->
<g id="node6" class="node">
<title>public.user_profiles</title>
<polygon fill="#efefef" stroke="none" points="437.54,-428.8 437.54,-474.8 956.46,-474.8 956.46,-428.8 437.54,-428.8"/>
<polygon fill="none" stroke="black" points="437.54,-428.8 437.54,-474.8 956.46,-474.8 956.46,-428.8 437.54,-428.8"/>
<text text-anchor="start" x="563.02" y="-452.6" font-family="Arial Bold" font-size="18.00">public.user_profiles</text>
<text text-anchor="start" x="706.49" y="-452.6" font-family="Arial" font-size="14.00">    </text>
<text text-anchor="start" x="737.6" y="-452.6" font-family="Arial" font-size="14.00" fill="#666666">[BASE TABLE]</text>
<text text-anchor="start" x="444.54" y="-438.2" font-family="Arial" font-size="14.00" fill="#333333">アプリケーションで表示・集計に使うユーザープロフィール。auth.users と 1:1 で対応する。</text>
<polygon fill="none" stroke="black" points="437.54,-398 437.54,-428.8 956.46,-428.8 956.46,-398 437.54,-398"/>
<text text-anchor="start" x="444.54" y="-410.2" font-family="Arial" font-size="14.00">account_deletion_started_at </text>
<text text-anchor="start" x="624.34" y="-410.2" font-family="Arial" font-size="14.00" fill="#666666">[timestamp with time zone]</text>
<polygon fill="none" stroke="black" points="437.54,-367.2 437.54,-398 956.46,-398 956.46,-367.2 437.54,-367.2"/>
<text text-anchor="start" x="444.54" y="-379.4" font-family="Arial" font-size="14.00">avatar_url </text>
<text text-anchor="start" x="510.69" y="-379.4" font-family="Arial" font-size="14.00" fill="#666666">[text]</text>
<polygon fill="none" stroke="black" points="437.54,-336.4 437.54,-367.2 956.46,-367.2 956.46,-336.4 437.54,-336.4"/>
<text text-anchor="start" x="444.54" y="-348.6" font-family="Arial" font-size="14.00">created_at </text>
<text text-anchor="start" x="514.59" y="-348.6" font-family="Arial" font-size="14.00" fill="#666666">[timestamp with time zone]</text>
<polygon fill="none" stroke="black" points="437.54,-305.6 437.54,-336.4 956.46,-336.4 956.46,-305.6 437.54,-305.6"/>
<text text-anchor="start" x="444.54" y="-317.8" font-family="Arial" font-size="14.00">display_name </text>
<text text-anchor="start" x="534.82" y="-317.8" font-family="Arial" font-size="14.00" fill="#666666">[varchar(100)]</text>
<polygon fill="none" stroke="black" points="437.54,-274.8 437.54,-305.6 956.46,-305.6 956.46,-274.8 437.54,-274.8"/>
<text text-anchor="start" x="444.54" y="-287" font-family="Arial" font-size="14.00">games_played </text>
<text text-anchor="start" x="539.49" y="-287" font-family="Arial" font-size="14.00" fill="#666666">[integer]</text>
<polygon fill="none" stroke="black" points="437.54,-244 437.54,-274.8 956.46,-274.8 956.46,-244 437.54,-244"/>
<text text-anchor="start" x="444.54" y="-256.2" font-family="Arial" font-size="14.00">games_won </text>
<text text-anchor="start" x="523.92" y="-256.2" font-family="Arial" font-size="14.00" fill="#666666">[integer]</text>
<polygon fill="none" stroke="black" points="437.54,-213.2 437.54,-244 956.46,-244 956.46,-213.2 437.54,-213.2"/>
<text text-anchor="start" x="444.54" y="-225.4" font-family="Arial" font-size="14.00">id </text>
<text text-anchor="start" x="459.33" y="-225.4" font-family="Arial" font-size="14.00" fill="#666666">[uuid]</text>
<polygon fill="none" stroke="black" points="437.54,-182.4 437.54,-213.2 956.46,-213.2 956.46,-182.4 437.54,-182.4"/>
<text text-anchor="start" x="444.54" y="-194.6" font-family="Arial" font-size="14.00">last_seen_at </text>
<text text-anchor="start" x="527.82" y="-194.6" font-family="Arial" font-size="14.00" fill="#666666">[timestamp with time zone]</text>
<polygon fill="none" stroke="black" points="437.54,-151.6 437.54,-182.4 956.46,-182.4 956.46,-151.6 437.54,-151.6"/>
<text text-anchor="start" x="444.54" y="-163.8" font-family="Arial" font-size="14.00">preferences </text>
<text text-anchor="start" x="522.36" y="-163.8" font-family="Arial" font-size="14.00" fill="#666666">[jsonb]</text>
<polygon fill="none" stroke="black" points="437.54,-120.8 437.54,-151.6 956.46,-151.6 956.46,-120.8 437.54,-120.8"/>
<text text-anchor="start" x="444.54" y="-133" font-family="Arial" font-size="14.00">total_score </text>
<text text-anchor="start" x="516.91" y="-133" font-family="Arial" font-size="14.00" fill="#666666">[numeric(10,1)]</text>
<polygon fill="none" stroke="black" points="437.54,-90 437.54,-120.8 956.46,-120.8 956.46,-90 437.54,-90"/>
<text text-anchor="start" x="444.54" y="-102.2" font-family="Arial" font-size="14.00">updated_at </text>
<text text-anchor="start" x="518.5" y="-102.2" font-family="Arial" font-size="14.00" fill="#666666">[timestamp with time zone]</text>
<polygon fill="none" stroke="black" points="437.54,-59.2 437.54,-90 956.46,-90 956.46,-59.2 437.54,-59.2"/>
<text text-anchor="start" x="444.54" y="-71.4" font-family="Arial" font-size="14.00">username </text>
<text text-anchor="start" x="510.69" y="-71.4" font-family="Arial" font-size="14.00" fill="#666666">[varchar(50)]</text>
</g>
<!-- public.chat_members&#45;&gt;public.user_profiles -->
<g id="edge2" class="edge">
<title>public.chat_members:user_id&#45;&gt;public.user_profiles:id</title>
<path fill="none" stroke="black" stroke-dasharray="5,2" d="M363.83,-1239.8C448.2,-1229.16 330.94,-1080.74 404,-1012.4 481.49,-939.92 570.86,-1056.88 640,-976.4 670.23,-941.2 669.39,-594.7 640,-558.8 581.86,-487.77 495.81,-588.93 437.54,-518 355.9,-418.61 307.92,-228.6 436.54,-228.6"/>
<polygon fill="black" stroke="black" points="363.79,-1239.8 353.54,-1235.89 358.46,-1240.11 354.14,-1240.36 354.14,-1240.36 354.14,-1240.36 358.46,-1240.11 354.07,-1244.87 363.79,-1239.8"/>
</g>
<!-- public.chat_messages -->
<g id="node2" class="node">
<title>public.chat_messages</title>
<polygon fill="#efefef" stroke="none" points="456.53,-1409.8 456.53,-1455.8 751.47,-1455.8 751.47,-1409.8 456.53,-1409.8"/>
<polygon fill="none" stroke="black" points="456.53,-1409.8 456.53,-1455.8 751.47,-1455.8 751.47,-1409.8 456.53,-1409.8"/>
<text text-anchor="start" x="463.53" y="-1433.6" font-family="Arial Bold" font-size="18.00">public.chat_messages</text>
<text text-anchor="start" x="619.98" y="-1433.6" font-family="Arial" font-size="14.00">    </text>
<text text-anchor="start" x="651.1" y="-1433.6" font-family="Arial" font-size="14.00" fill="#666666">[BASE TABLE]</text>
<text text-anchor="start" x="493.15" y="-1419.2" font-family="Arial" font-size="14.00" fill="#333333">チャットメッセージと返信先メッセージ。</text>
<polygon fill="none" stroke="black" points="456.53,-1379 456.53,-1409.8 751.47,-1409.8 751.47,-1379 456.53,-1379"/>
<text text-anchor="start" x="463.53" y="-1391.2" font-family="Arial" font-size="14.00">content </text>
<text text-anchor="start" x="513.34" y="-1391.2" font-family="Arial" font-size="14.00" fill="#666666">[text]</text>
<polygon fill="none" stroke="black" points="456.53,-1348.2 456.53,-1379 751.47,-1379 751.47,-1348.2 456.53,-1348.2"/>
<text text-anchor="start" x="463.53" y="-1360.4" font-family="Arial" font-size="14.00">content_type </text>
<text text-anchor="start" x="547.59" y="-1360.4" font-family="Arial" font-size="14.00" fill="#666666">[chat_content_type]</text>
<polygon fill="none" stroke="black" points="456.53,-1317.4 456.53,-1348.2 751.47,-1348.2 751.47,-1317.4 456.53,-1317.4"/>
<text text-anchor="start" x="463.53" y="-1329.6" font-family="Arial" font-size="14.00">created_at </text>
<text text-anchor="start" x="533.58" y="-1329.6" font-family="Arial" font-size="14.00" fill="#666666">[timestamp with time zone]</text>
<polygon fill="none" stroke="black" points="456.53,-1286.6 456.53,-1317.4 751.47,-1317.4 751.47,-1286.6 456.53,-1286.6"/>
<text text-anchor="start" x="463.53" y="-1298.8" font-family="Arial" font-size="14.00">id </text>
<text text-anchor="start" x="478.31" y="-1298.8" font-family="Arial" font-size="14.00" fill="#666666">[uuid]</text>
<polygon fill="none" stroke="black" points="456.53,-1255.8 456.53,-1286.6 751.47,-1286.6 751.47,-1255.8 456.53,-1255.8"/>
<text text-anchor="start" x="463.53" y="-1268" font-family="Arial" font-size="14.00">reply_to </text>
<text text-anchor="start" x="517.22" y="-1268" font-family="Arial" font-size="14.00" fill="#666666">[uuid]</text>
<polygon fill="none" stroke="black" points="456.53,-1225 456.53,-1255.8 751.47,-1255.8 751.47,-1225 456.53,-1225"/>
<text text-anchor="start" x="463.53" y="-1237.2" font-family="Arial" font-size="14.00">room_id </text>
<text text-anchor="start" x="518" y="-1237.2" font-family="Arial" font-size="14.00" fill="#666666">[uuid]</text>
<polygon fill="none" stroke="black" points="456.53,-1194.2 456.53,-1225 751.47,-1225 751.47,-1194.2 456.53,-1194.2"/>
<text text-anchor="start" x="463.53" y="-1206.4" font-family="Arial" font-size="14.00">sender_id </text>
<text text-anchor="start" x="528.91" y="-1206.4" font-family="Arial" font-size="14.00" fill="#666666">[uuid]</text>
</g>
<!-- public.chat_messages&#45;&gt;public.chat_messages -->
<g id="edge4" class="edge">
<title>public.chat_messages:reply_to&#45;&gt;public.chat_messages:id</title>
<path fill="none" stroke="black" d="M605.36,-1296.73C612.97,-1458 612.52,-1775.7 604,-1775.7 595.29,-1775.7 595.01,-1472.75 603.16,-1317.05"/>
<polygon fill="black" stroke="black" points="605.35,-1296.66 609.35,-1286.45 605.09,-1291.34 604.88,-1287.01 604.88,-1287.01 604.88,-1287.01 605.09,-1291.34 600.36,-1286.9 605.35,-1296.66"/>
</g>
<!-- public.chat_messages&#45;&gt;public.chat_rooms -->
<g id="edge3" class="edge">
<title>public.chat_messages:room_id&#45;&gt;public.chat_rooms:id</title>
<path fill="none" stroke="black" d="M445.45,-1238.87C421.45,-1230.07 445.73,-1185.03 456.53,-1151 487.57,-1053.24 556.68,-1058.82 587.53,-961 605.63,-903.61 648.71,-825.6 588.53,-825.6"/>
<polygon fill="black" stroke="black" points="445.31,-1238.85 454.52,-1244.8 450.58,-1239.65 454.87,-1240.3 454.87,-1240.3 454.87,-1240.3 450.58,-1239.65 455.87,-1235.9 445.31,-1238.85"/>
</g>
<!-- public.chat_messages&#45;&gt;public.user_profiles -->
<g id="edge5" class="edge">
<title>public.chat_messages:sender_id&#45;&gt;public.user_profiles:id</title>
<path fill="none" stroke="black" stroke-dasharray="5,2" d="M607.09,-1183.28C632.53,-1102.79 806.23,-559.54 807,-558.8 856.73,-511.17 914.57,-572.65 956.46,-518 1034.7,-415.91 1086.08,-228.6 957.46,-228.6"/>
<polygon fill="black" stroke="black" points="607.08,-1183.33 599.8,-1191.54 605.49,-1188.43 604.2,-1192.56 604.2,-1192.56 604.2,-1192.56 605.49,-1188.43 608.4,-1194.22 607.08,-1183.33"/>
</g>
<!-- public.chat_rooms&#45;&gt;public.user_profiles -->
<g id="edge6" class="edge">
<title>public.chat_rooms:owner_id&#45;&gt;public.user_profiles:id</title>
<path fill="none" stroke="black" stroke-dasharray="5,2" d="M598.68,-732.37C652.24,-722.92 622.64,-635.04 587.53,-582.2 547.4,-521.81 477.58,-578.46 437.54,-518 366.53,-410.76 307.92,-228.6 436.54,-228.6"/>
<polygon fill="black" stroke="black" points="598.83,-732.36 588.5,-728.69 593.51,-732.79 589.2,-733.15 589.2,-733.15 589.2,-733.15 593.51,-732.79 589.23,-737.66 598.83,-732.36"/>
</g>
<!-- public.push_receipts -->
<g id="node4" class="node">
<title>public.push_receipts</title>
<polygon fill="#efefef" stroke="none" points="862.48,-1548.4 862.48,-1594.4 1377.52,-1594.4 1377.52,-1548.4 862.48,-1548.4"/>
<polygon fill="none" stroke="black" points="862.48,-1548.4 862.48,-1594.4 1377.52,-1594.4 1377.52,-1548.4 862.48,-1548.4"/>
<text text-anchor="start" x="983.52" y="-1572.2" font-family="Arial Bold" font-size="18.00">public.push_receipts</text>
<text text-anchor="start" x="1131.99" y="-1572.2" font-family="Arial" font-size="14.00">    </text>
<text text-anchor="start" x="1163.1" y="-1572.2" font-family="Arial" font-size="14.00" fill="#666666">[BASE TABLE]</text>
<text text-anchor="start" x="869.48" y="-1557.8" font-family="Arial" font-size="14.00" fill="#333333">Push 配信結果の再試行キュー。処理中レコードは worker_id と locked_until で排他する。</text>
<polygon fill="none" stroke="black" points="862.48,-1517.6 862.48,-1548.4 1377.52,-1548.4 1377.52,-1517.6 862.48,-1517.6"/>
<text text-anchor="start" x="869.48" y="-1529.8" font-family="Arial" font-size="14.00">attempt_count </text>
<text text-anchor="start" x="962.09" y="-1529.8" font-family="Arial" font-size="14.00" fill="#666666">[integer]</text>
<polygon fill="none" stroke="black" points="862.48,-1486.8 862.48,-1517.6 1377.52,-1517.6 1377.52,-1486.8 862.48,-1486.8"/>
<text text-anchor="start" x="869.48" y="-1499" font-family="Arial" font-size="14.00">created_at </text>
<text text-anchor="start" x="939.52" y="-1499" font-family="Arial" font-size="14.00" fill="#666666">[timestamp with time zone]</text>
<polygon fill="none" stroke="black" points="862.48,-1456 862.48,-1486.8 1377.52,-1486.8 1377.52,-1456 862.48,-1456"/>
<text text-anchor="start" x="869.48" y="-1468.2" font-family="Arial" font-size="14.00">device_id </text>
<text text-anchor="start" x="932.52" y="-1468.2" font-family="Arial" font-size="14.00" fill="#666666">[text]</text>
<polygon fill="none" stroke="black" points="862.48,-1425.2 862.48,-1456 1377.52,-1456 1377.52,-1425.2 862.48,-1425.2"/>
<text text-anchor="start" x="869.48" y="-1437.4" font-family="Arial" font-size="14.00">expo_push_token </text>
<text text-anchor="start" x="983.9" y="-1437.4" font-family="Arial" font-size="14.00" fill="#666666">[text]</text>
<polygon fill="none" stroke="black" points="862.48,-1394.4 862.48,-1425.2 1377.52,-1425.2 1377.52,-1394.4 862.48,-1394.4"/>
<text text-anchor="start" x="869.48" y="-1406.6" font-family="Arial" font-size="14.00">expo_receipt_id </text>
<text text-anchor="start" x="972.21" y="-1406.6" font-family="Arial" font-size="14.00" fill="#666666">[text]</text>
<polygon fill="none" stroke="black" points="862.48,-1363.6 862.48,-1394.4 1377.52,-1394.4 1377.52,-1363.6 862.48,-1363.6"/>
<text text-anchor="start" x="869.48" y="-1375.8" font-family="Arial" font-size="14.00">id </text>
<text text-anchor="start" x="884.26" y="-1375.8" font-family="Arial" font-size="14.00" fill="#666666">[uuid]</text>
<polygon fill="none" stroke="black" points="862.48,-1332.8 862.48,-1363.6 1377.52,-1363.6 1377.52,-1332.8 862.48,-1332.8"/>
<text text-anchor="start" x="869.48" y="-1345" font-family="Arial" font-size="14.00">locked_until </text>
<text text-anchor="start" x="947.3" y="-1345" font-family="Arial" font-size="14.00" fill="#666666">[timestamp with time zone]</text>
<polygon fill="none" stroke="black" points="862.48,-1302 862.48,-1332.8 1377.52,-1332.8 1377.52,-1302 862.48,-1302"/>
<text text-anchor="start" x="869.48" y="-1314.2" font-family="Arial" font-size="14.00">next_attempt_at </text>
<text text-anchor="start" x="973.77" y="-1314.2" font-family="Arial" font-size="14.00" fill="#666666">[timestamp with time zone]</text>
<polygon fill="none" stroke="black" points="862.48,-1271.2 862.48,-1302 1377.52,-1302 1377.52,-1271.2 862.48,-1271.2"/>
<text text-anchor="start" x="869.48" y="-1283.4" font-family="Arial" font-size="14.00">platform </text>
<text text-anchor="start" x="923.94" y="-1283.4" font-family="Arial" font-size="14.00" fill="#666666">[text]</text>
<polygon fill="none" stroke="black" points="862.48,-1240.4 862.48,-1271.2 1377.52,-1271.2 1377.52,-1240.4 862.48,-1240.4"/>
<text text-anchor="start" x="869.48" y="-1252.6" font-family="Arial" font-size="14.00">processed_at </text>
<text text-anchor="start" x="957.42" y="-1252.6" font-family="Arial" font-size="14.00" fill="#666666">[timestamp with time zone]</text>
<polygon fill="none" stroke="black" points="862.48,-1209.6 862.48,-1240.4 1377.52,-1240.4 1377.52,-1209.6 862.48,-1209.6"/>
<text text-anchor="start" x="869.48" y="-1221.8" font-family="Arial" font-size="14.00">provider_error_code </text>
<text text-anchor="start" x="999.43" y="-1221.8" font-family="Arial" font-size="14.00" fill="#666666">[text]</text>
<polygon fill="none" stroke="black" points="862.48,-1178.8 862.48,-1209.6 1377.52,-1209.6 1377.52,-1178.8 862.48,-1178.8"/>
<text text-anchor="start" x="869.48" y="-1191" font-family="Arial" font-size="14.00">push_token_id </text>
<text text-anchor="start" x="964.44" y="-1191" font-family="Arial" font-size="14.00" fill="#666666">[uuid]</text>
<polygon fill="none" stroke="black" points="862.48,-1148 862.48,-1178.8 1377.52,-1178.8 1377.52,-1148 862.48,-1148"/>
<text text-anchor="start" x="869.48" y="-1160.2" font-family="Arial" font-size="14.00">status </text>
<text text-anchor="start" x="910.72" y="-1160.2" font-family="Arial" font-size="14.00" fill="#666666">[text]</text>
<polygon fill="none" stroke="black" points="862.48,-1117.2 862.48,-1148 1377.52,-1148 1377.52,-1117.2 862.48,-1117.2"/>
<text text-anchor="start" x="869.48" y="-1129.4" font-family="Arial" font-size="14.00">updated_at </text>
<text text-anchor="start" x="943.43" y="-1129.4" font-family="Arial" font-size="14.00" fill="#666666">[timestamp with time zone]</text>
<polygon fill="none" stroke="black" points="862.48,-1086.4 862.48,-1117.2 1377.52,-1117.2 1377.52,-1086.4 862.48,-1086.4"/>
<text text-anchor="start" x="869.48" y="-1098.6" font-family="Arial" font-size="14.00">user_id </text>
<text text-anchor="start" x="919.28" y="-1098.6" font-family="Arial" font-size="14.00" fill="#666666">[uuid]</text>
<polygon fill="none" stroke="black" points="862.48,-1055.6 862.48,-1086.4 1377.52,-1086.4 1377.52,-1055.6 862.48,-1055.6"/>
<text text-anchor="start" x="869.48" y="-1067.8" font-family="Arial" font-size="14.00">worker_id </text>
<text text-anchor="start" x="934.06" y="-1067.8" font-family="Arial" font-size="14.00" fill="#666666">[text]</text>
</g>
<!-- public.push_tokens -->
<g id="node5" class="node">
<title>public.push_tokens</title>
<polygon fill="#efefef" stroke="none" points="861.94,-887.2 861.94,-933.2 1282.06,-933.2 1282.06,-887.2 861.94,-887.2"/>
<polygon fill="none" stroke="black" points="861.94,-887.2 861.94,-933.2 1282.06,-933.2 1282.06,-887.2 861.94,-887.2"/>
<text text-anchor="start" x="940.01" y="-911" font-family="Arial Bold" font-size="18.00">public.push_tokens</text>
<text text-anchor="start" x="1079.5" y="-911" font-family="Arial" font-size="14.00">    </text>
<text text-anchor="start" x="1110.62" y="-911" font-family="Arial" font-size="14.00" fill="#666666">[BASE TABLE]</text>
<text text-anchor="start" x="868.94" y="-896.6" font-family="Arial" font-size="14.00" fill="#333333">モバイル端末ごとの Expo Push Token。サービスロールだけが操作する。</text>
<polygon fill="none" stroke="black" points="861.94,-856.4 861.94,-887.2 1282.06,-887.2 1282.06,-856.4 861.94,-856.4"/>
<text text-anchor="start" x="868.94" y="-868.6" font-family="Arial" font-size="14.00">app_version </text>
<text text-anchor="start" x="949.1" y="-868.6" font-family="Arial" font-size="14.00" fill="#666666">[text]</text>
<polygon fill="none" stroke="black" points="861.94,-825.6 861.94,-856.4 1282.06,-856.4 1282.06,-825.6 861.94,-825.6"/>
<text text-anchor="start" x="868.94" y="-837.8" font-family="Arial" font-size="14.00">created_at </text>
<text text-anchor="start" x="938.99" y="-837.8" font-family="Arial" font-size="14.00" fill="#666666">[timestamp with time zone]</text>
<polygon fill="none" stroke="black" points="861.94,-794.8 861.94,-825.6 1282.06,-825.6 1282.06,-794.8 861.94,-794.8"/>
<text text-anchor="start" x="868.94" y="-807" font-family="Arial" font-size="14.00">device_id </text>
<text text-anchor="start" x="931.98" y="-807" font-family="Arial" font-size="14.00" fill="#666666">[text]</text>
<polygon fill="none" stroke="black" points="861.94,-764 861.94,-794.8 1282.06,-794.8 1282.06,-764 861.94,-764"/>
<text text-anchor="start" x="868.94" y="-776.2" font-family="Arial" font-size="14.00">expo_push_token </text>
<text text-anchor="start" x="983.37" y="-776.2" font-family="Arial" font-size="14.00" fill="#666666">[text]</text>
<polygon fill="none" stroke="black" points="861.94,-733.2 861.94,-764 1282.06,-764 1282.06,-733.2 861.94,-733.2"/>
<text text-anchor="start" x="868.94" y="-745.4" font-family="Arial" font-size="14.00">id </text>
<text text-anchor="start" x="883.72" y="-745.4" font-family="Arial" font-size="14.00" fill="#666666">[uuid]</text>
<polygon fill="none" stroke="black" points="861.94,-702.4 861.94,-733.2 1282.06,-733.2 1282.06,-702.4 861.94,-702.4"/>
<text text-anchor="start" x="868.94" y="-714.6" font-family="Arial" font-size="14.00">last_seen_at </text>
<text text-anchor="start" x="952.22" y="-714.6" font-family="Arial" font-size="14.00" fill="#666666">[timestamp with time zone]</text>
<polygon fill="none" stroke="black" points="861.94,-671.6 861.94,-702.4 1282.06,-702.4 1282.06,-671.6 861.94,-671.6"/>
<text text-anchor="start" x="868.94" y="-683.8" font-family="Arial" font-size="14.00">platform </text>
<text text-anchor="start" x="923.4" y="-683.8" font-family="Arial" font-size="14.00" fill="#666666">[text]</text>
<polygon fill="none" stroke="black" points="861.94,-640.8 861.94,-671.6 1282.06,-671.6 1282.06,-640.8 861.94,-640.8"/>
<text text-anchor="start" x="868.94" y="-653" font-family="Arial" font-size="14.00">updated_at </text>
<text text-anchor="start" x="942.9" y="-653" font-family="Arial" font-size="14.00" fill="#666666">[timestamp with time zone]</text>
<polygon fill="none" stroke="black" points="861.94,-610 861.94,-640.8 1282.06,-640.8 1282.06,-610 861.94,-610"/>
<text text-anchor="start" x="868.94" y="-622.2" font-family="Arial" font-size="14.00">user_id </text>
<text text-anchor="start" x="918.75" y="-622.2" font-family="Arial" font-size="14.00" fill="#666666">[uuid]</text>
</g>
<!-- public.push_receipts&#45;&gt;public.push_tokens -->
<g id="edge7" class="edge">
<title>public.push_receipts:push_token_id&#45;&gt;public.push_tokens:id</title>
<path fill="none" stroke="black" d="M851.23,-1193.48C783.16,-1183.33 810.14,-1069.11 862.48,-1012.4 925.95,-943.63 1218.63,-1045.21 1282.06,-976.4 1316.37,-939.18 1333.68,-748.6 1283.06,-748.6"/>
<polygon fill="black" stroke="black" points="851.17,-1193.47 860.83,-1198.67 856.49,-1193.85 860.81,-1194.15 860.81,-1194.15 860.81,-1194.15 856.49,-1193.85 861.46,-1189.69 851.17,-1193.47"/>
</g>
<!-- public.push_receipts&#45;&gt;public.user_profiles -->
<g id="edge8" class="edge">
<title>public.push_receipts:user_id&#45;&gt;public.user_profiles:id</title>
<path fill="none" stroke="black" stroke-dasharray="5,2" d="M1386.38,-1094.92C1414.2,-1049.31 1449.98,-785.28 1334,-558.8 1232.55,-360.68 1180.04,-228.6 957.46,-228.6"/>
<polygon fill="black" stroke="black" points="1386.3,-1094.99 1375.81,-1098.19 1382.29,-1098.51 1379.03,-1101.36 1379.03,-1101.36 1379.03,-1101.36 1382.29,-1098.51 1381.74,-1104.97 1386.3,-1094.99"/>
</g>
<!-- public.push_tokens&#45;&gt;public.user_profiles -->
<g id="edge9" class="edge">
<title>public.push_tokens:user_id&#45;&gt;public.user_profiles:id</title>
<path fill="none" stroke="black" stroke-dasharray="5,2" d="M851.12,-622.68C839.27,-613.82 850.45,-585.3 861.94,-566.8 886.88,-526.63 931.79,-558.33 956.46,-518 1023.56,-408.27 1086.08,-228.6 957.46,-228.6"/>
<polygon fill="black" stroke="black" points="850.98,-622.64 859.41,-629.65 856.12,-624.06 860.29,-625.22 860.29,-625.22 860.29,-625.22 856.12,-624.06 861.82,-620.97 850.98,-622.64"/>
</g>
</g>
</svg>
