<svg xmlns="http://www.w3.org/2000/svg" viewBox="0 0 210 315"><g transform="translate(-630.001 954.891)"><rect width="209" height="314" x="630.5" y="-954.4" rx="15" ry="15" style="opacity:1;fill:#fdfeee;fill-opacity:1;stroke:none;stroke-width:0;stroke-linecap:butt;stroke-linejoin:round;stroke-miterlimit:4;stroke-dasharray:none;stroke-opacity:1"/><path d="M685.5-879.4h99v164h-99z" style="opacity:1;fill:none;fill-opacity:1;stroke:none;stroke-width:0;stroke-linecap:butt;stroke-linejoin:round;stroke-miterlimit:4;stroke-dasharray:none;stroke-opacity:1"/><path d="M659.5-886.7s5-4 5-9.4a9 9 0 0 0-9.5-8.6 9 9 0 0 0-9.4 8.6c0 5.5 5 9.4 5 9.4-5.6-4.3-15.4-1.3-15.4 7.2a9 9 0 0 0 9 9c6.6 0 9.5-7.2 9.5-7.2s.8 8.2-4 12.6h10.7c-4.9-4.4-4-12.6-4-12.6s2.8 7.2 9.4 7.2a9 9 0 0 0 9-9c0-8.5-9.8-11.5-15.3-7.2z" style="fill:#010101;fill-opacity:1;stroke:#000;stroke-width:.459766;stroke-opacity:1"/><path d="M810.5-708.5s-5 4-5 9.5a9 9 0 0 0 9.5 8.5 9 9 0 0 0 9.4-8.5c0-5.5-5-9.5-5-9.5 5.6 4.3 15.4 1.4 15.4-7.2a9 9 0 0 0-9-9c-6.6 0-9.5 7.2-9.5 7.2s-.8-8.2 4-12.5h-10.7c4.9 4.3 4 12.5 4 12.5s-2.8-7.2-9.4-7.2a9 9 0 0 0-9 9c0 8.6 9.8 11.5 15.3 7.2z" style="fill:#010101;fill-opacity:1;stroke:#000;stroke-width:.45967;stroke-opacity:1"/><text xml:space="preserve" x="640.4" y="-909.9" style="color:#000;font-style:normal;font-variant:normal;font-weight:400;font-stretch:normal;line-height:0%;font-family:Arial;-inkscape-font-specification:&quot;Arial, Normal&quot;;text-indent:0;text-align:start;text-decoration:none;text-decoration-line:none;text-decoration-style:solid;text-decoration-color:#000;letter-spacing:0;word-spacing:0;text-transform:none;writing-mode:lr-tb;direction:ltr;baseline-shift:baseline;text-anchor:start;white-space:normal;clip-rule:nonzero;display:inline;overflow:visible;visibility:visible;opacity:1;isolation:auto;mix-blend-mode:normal;color-interpolation:sRGB;color-interpolation-filters:linearRGB;solid-color:#000;solid-opacity:1;fill:#010101;fill-opacity:1;fill-rule:nonzero;stroke:#000;stroke-width:1px;stroke-linecap:butt;stroke-linejoin:miter;stroke-miterlimit:4;stroke-dasharray:none;stroke-dashoffset:0;stroke-opacity:1;color-rendering:auto;image-rendering:auto;shape-rendering:auto;text-rendering:auto"><tspan x="640.4" y="-909.9" style="font-size:52.5px;line-height:1.25">4</tspan></text><text xml:space="preserve" x="-825.7" y="685" style="color:#000;font-style:normal;font-variant:normal;font-weight:400;font-stretch:normal;line-height:0%;font-family:Arial;-inkscape-font-specification:&quot;Arial, Normal&quot;;text-indent:0;text-align:start;text-decoration:none;text-decoration-line:none;text-decoration-style:solid;text-decoration-color:#000;letter-spacing:0;word-spacing:0;text-transform:none;writing-mode:lr-tb;direction:ltr;baseline-shift:baseline;text-anchor:start;white-space:normal;clip-rule:nonzero;display:inline;overflow:visible;visibility:visible;opacity:1;isolation:auto;mix-blend-mode:normal;color-interpolation:sRGB;color-interpolation-filters:linearRGB;solid-color:#000;solid-opacity:1;fill:#010101;fill-opacity:1;fill-rule:nonzero;stroke:#000;stroke-width:1px;stroke-linecap:butt;stroke-linejoin:miter;stroke-miterlimit:4;stroke-dasharray:none;stroke-dashoffset:0;stroke-opacity:1;color-rendering:auto;image-rendering:auto;shape-rendering:auto;text-rendering:auto" transform="scale(-1)"><tspan x="-825.7" y="685" style="font-size:52.5px;line-height:1.25">4</tspan></text><path d="M710.2-860s4.5-3.6 4.5-8.6c0-2.8-2.6-7.6-8.5-7.6s-8.5 4.8-8.5 7.6c0 5 4.4 8.5 4.4 8.5-5-3.8-13.7-1.2-13.7 6.5a8 8 0 0 0 8 8c6 0 8.5-6.4 8.5-6.4s.8 7.4-3.6 11.3h9.7c-4.4-3.9-3.6-11.3-3.6-11.3s2.5 6.5 8.5 6.5c5 0 8-4.2 8-8.1 0-7.7-8.8-10.3-13.7-6.5z" style="fill:#010101;fill-opacity:1;stroke:#000;stroke-width:.413789;stroke-opacity:1"/><path d="M702.1-734.8s-4.4 3.5-4.4 8.5c0 2.9 2.5 7.6 8.5 7.6s8.5-4.8 8.5-7.6c0-5-4.5-8.5-4.5-8.5 5 3.8 13.8 1.2 13.8-6.5 0-3.9-3.2-8-8.1-8-6 0-8.5 6.4-8.5 6.4s-.8-7.4 3.6-11.3h-9.7c4.4 3.9 3.6 11.3 3.6 11.3s-2.5-6.5-8.4-6.5c-5 0-8.1 4.3-8.1 8.1 0 7.7 8.8 10.3 13.7 6.5z" style="fill:#010101;fill-opacity:1;stroke:#000;stroke-width:.413789;stroke-opacity:1"/><path d="M767.2-860s4.5-3.6 4.5-8.6c0-2.8-2.6-7.6-8.5-7.6s-8.5 4.8-8.5 7.6c0 5 4.4 8.5 4.4 8.5-5-3.8-13.7-1.2-13.7 6.5a8 8 0 0 0 8 8c6 0 8.5-6.4 8.5-6.4s.8 7.4-3.6 11.3h9.7c-4.4-3.9-3.6-11.3-3.6-11.3s2.5 6.5 8.5 6.5c5 0 8-4.2 8-8.1 0-7.7-8.8-10.3-13.7-6.5z" style="fill:#010101;fill-opacity:1;stroke:#000;stroke-width:.413789;stroke-opacity:1"/><path d="M759.1-734.8s-4.4 3.5-4.4 8.5c0 2.9 2.5 7.6 8.5 7.6s8.5-4.8 8.5-7.6c0-5-4.5-8.5-4.5-8.5 5 3.8 13.8 1.2 13.8-6.5 0-3.9-3.2-8-8.1-8-6 0-8.5 6.4-8.5 6.4s-.8-7.4 3.6-11.3h-9.7c4.4 3.9 3.6 11.3 3.6 11.3s-2.5-6.5-8.4-6.5c-5 0-8.1 4.3-8.1 8.1 0 7.7 8.8 10.3 13.7 6.5z" style="fill:#010101;fill-opacity:1;stroke:#000;stroke-width:.413789;stroke-opacity:1"/></g></svg>