<svg xmlns="http://www.w3.org/2000/svg" viewBox="0 0 210 315"><g transform="translate(-630.001 9.891)"><rect width="209" height="314" x="630.5" y="-9.4" rx="15" ry="15" style="opacity:1;fill:#fdfeee;fill-opacity:1;stroke:none;stroke-width:0;stroke-linecap:butt;stroke-linejoin:round;stroke-miterlimit:4;stroke-dasharray:none;stroke-opacity:1"/><path d="M685.5 65.6h99v164h-99z" style="opacity:1;fill:none;fill-opacity:1;stroke:none;stroke-width:0;stroke-linecap:butt;stroke-linejoin:round;stroke-miterlimit:4;stroke-dasharray:none;stroke-opacity:1"/><path d="M675 65.9c-.7-7.7-19.3-22.1-19.9-25.8-.6 3.7-19.2 18-19.8 25.8-.4 5.4 4.2 7.6 8.4 7.6 4.5 0 8.3-5.3 9.6-6.3.6 1.4-4 12.7-5.4 12.7h14.4c-1.4 0-6-11.3-5.4-12.7 1.1 1 4.5 6.2 9.6 6.3 4.2 0 8.8-2.2 8.4-7.6z" style="fill:#010101;fill-opacity:1;stroke:#000;stroke-width:.517679;stroke-miterlimit:4;stroke-dasharray:none;stroke-opacity:1"/><path d="M795.3 229.3c.6 7.7 19.2 22.2 19.8 25.8.6-3.6 19.2-18 19.8-25.8.4-5.4-4.2-7.6-8.4-7.6-4.5 0-8.3 5.3-9.6 6.3-.6-1.4 4-12.6 5.4-12.6H808c1.4 0 6 11.2 5.4 12.6-1.1-1-4.5-6.2-9.6-6.3-4.2 0-8.8 2.2-8.4 7.6z" style="fill:#010101;fill-opacity:1;stroke:#000;stroke-width:.517679;stroke-miterlimit:4;stroke-dasharray:none;stroke-opacity:1"/><text xml:space="preserve" x="640.4" y="35.1" style="color:#000;font-style:normal;font-variant:normal;font-weight:400;font-stretch:normal;line-height:0%;font-family:Arial;-inkscape-font-specification:&quot;Arial, Normal&quot;;text-indent:0;text-align:start;text-decoration:none;text-decoration-line:none;text-decoration-style:solid;text-decoration-color:#000;letter-spacing:0;word-spacing:0;text-transform:none;writing-mode:lr-tb;direction:ltr;baseline-shift:baseline;text-anchor:start;white-space:normal;clip-rule:nonzero;display:inline;overflow:visible;visibility:visible;opacity:1;isolation:auto;mix-blend-mode:normal;color-interpolation:sRGB;color-interpolation-filters:linearRGB;solid-color:#000;solid-opacity:1;fill:#010101;fill-opacity:1;fill-rule:nonzero;stroke:#000;stroke-width:1;stroke-linecap:butt;stroke-linejoin:miter;stroke-miterlimit:4;stroke-dasharray:none;stroke-dashoffset:0;stroke-opacity:1;color-rendering:auto;image-rendering:auto;shape-rendering:auto;text-rendering:auto"><tspan x="640.4" y="35.1" style="font-size:52.5px;line-height:1.25">4</tspan></text><text xml:space="preserve" x="-825.1" y="-260.1" style="color:#000;font-style:normal;font-variant:normal;font-weight:400;font-stretch:normal;line-height:0%;font-family:Arial;-inkscape-font-specification:&quot;Arial, Normal&quot;;text-indent:0;text-align:start;text-decoration:none;text-decoration-line:none;text-decoration-style:solid;text-decoration-color:#000;letter-spacing:0;word-spacing:0;text-transform:none;writing-mode:lr-tb;direction:ltr;baseline-shift:baseline;text-anchor:start;white-space:normal;clip-rule:nonzero;display:inline;overflow:visible;visibility:visible;opacity:1;isolation:auto;mix-blend-mode:normal;color-interpolation:sRGB;color-interpolation-filters:linearRGB;solid-color:#000;solid-opacity:1;fill:#010101;fill-opacity:1;fill-rule:nonzero;stroke:#000;stroke-width:1;stroke-linecap:butt;stroke-linejoin:miter;stroke-miterlimit:4;stroke-dasharray:none;stroke-dashoffset:0;stroke-opacity:1;color-rendering:auto;image-rendering:auto;shape-rendering:auto;text-rendering:auto" transform="scale(-1)"><tspan x="-825.1" y="-260.1" style="font-size:52.5px;line-height:1.25">4</tspan></text><path d="M726 94c-.6-6.9-17.3-19.8-17.8-23-.6 3.2-17.2 16.1-17.8 23-.3 5 3.8 7 7.6 7 4 0 7.4-4.8 8.6-5.7.5 1.2-3.6 11.3-4.9 11.3h13c-1.3 0-5.4-10.1-4.9-11.3 1 .8 4 5.5 8.6 5.7 3.8 0 7.9-2 7.5-7z" style="fill:#010101;fill-opacity:1;stroke:#000;stroke-width:.464687;stroke-miterlimit:4;stroke-dasharray:none;stroke-opacity:1"/><path d="M690.4 200c.6 6.8 17.2 19.8 17.8 23 .5-3.2 17.2-16.2 17.7-23 .4-5-3.7-7-7.5-7-4 0-7.4 4.8-8.6 5.7-.5-1.2 3.6-11.4 4.8-11.4h-12.9c1.3 0 5.4 10.2 4.9 11.4-1-.8-4-5.5-8.6-5.7-3.8 0-8 2-7.6 7z" style="fill:#010101;fill-opacity:1;stroke:#000;stroke-width:.464687;stroke-miterlimit:4;stroke-dasharray:none;stroke-opacity:1"/><path d="M780.6 94c-.5-6.9-17.2-19.8-17.7-23-.6 3.2-17.2 16.1-17.8 23-.3 5 3.8 7 7.6 7 4 0 7.4-4.8 8.6-5.7.5 1.2-3.6 11.3-4.9 11.3h13c-1.3 0-5.4-10.1-5-11.3 1.1.8 4 5.5 8.7 5.7 3.8 0 7.9-2 7.5-7z" style="fill:#010101;fill-opacity:1;stroke:#000;stroke-width:.464687;stroke-miterlimit:4;stroke-dasharray:none;stroke-opacity:1"/><path d="M745.1 200c.6 6.8 17.2 19.8 17.8 23 .5-3.2 17.2-16.2 17.7-23 .4-5-3.7-7-7.5-7-4 0-7.5 4.8-8.6 5.7-.5-1.2 3.5-11.4 4.8-11.4h-12.9c1.3 0 5.4 10.2 4.9 11.4-1-.8-4-5.5-8.6-5.7-3.8 0-8 2-7.6 7z" style="fill:#010101;fill-opacity:1;stroke:#000;stroke-width:.464687;stroke-miterlimit:4;stroke-dasharray:none;stroke-opacity:1"/></g></svg>