<svg xmlns="http://www.w3.org/2000/svg" viewBox="0 0 210 315"><g transform="translate(-.001 954.891)"><rect width="209" height="314" x=".5" y="-954.4" rx="15" ry="15" style="opacity:1;fill:#fdfeee;fill-opacity:1;stroke:none;stroke-width:0;stroke-linecap:butt;stroke-linejoin:round;stroke-miterlimit:4;stroke-dasharray:none;stroke-opacity:1"/><path d="M55.5-879.4h99v164h-99z" style="opacity:1;fill:none;fill-opacity:1;stroke:none;stroke-width:0;stroke-linecap:butt;stroke-linejoin:round;stroke-miterlimit:4;stroke-dasharray:none;stroke-opacity:1"/><path d="M114.5-801.2s10.6-8.4 10.6-20c0-6.9-6.1-18.2-20.1-18.2s-20 11.3-20 18.1c0 11.7 10.5 20 10.5 20-11.7-9-32.5-2.8-32.5 15.4 0 9 7.4 19 19 19 14 0 20.1-15.2 20.1-15.2s1.8 17.4-8.6 26.7h23c-10.4-9.3-8.6-26.7-8.6-26.7s6 15.3 20 15.3c11.7 0 19.1-10 19.1-19.1 0-18.2-20.8-24.4-32.5-15.3z" style="fill:#010101;fill-opacity:1;stroke:#000;stroke-width:.977002;stroke-opacity:1"/><path d="M29.5-886.7s5-4 5-9.4a9 9 0 0 0-9.5-8.6 9 9 0 0 0-9.4 8.6c0 5.5 5 9.4 5 9.4C15-891 5.1-888 5.1-879.5a9 9 0 0 0 9 9c6.6 0 9.5-7.2 9.5-7.2s.8 8.2-4 12.6h10.7c-4.9-4.4-4-12.6-4-12.6s2.8 7.2 9.4 7.2a9 9 0 0 0 9-9c0-8.5-9.8-11.5-15.3-7.2z" style="fill:#010101;fill-opacity:1;stroke:#000;stroke-width:.459766;stroke-opacity:1"/><path d="M180.5-708.5s-5 4-5 9.5a9 9 0 0 0 9.5 8.5 9 9 0 0 0 9.4-8.5c0-5.5-5-9.5-5-9.5 5.6 4.3 15.4 1.4 15.4-7.2a9 9 0 0 0-9-9c-6.6 0-9.5 7.2-9.5 7.2s-.8-8.2 4-12.5h-10.7c4.9 4.3 4 12.5 4 12.5s-2.8-7.2-9.4-7.2a9 9 0 0 0-9 9c0 8.6 9.8 11.5 15.3 7.2z" style="fill:#010101;fill-opacity:1;stroke:#000;stroke-width:.45967;stroke-opacity:1"/><text xml:space="preserve" x="11.6" y="-910.4" style="color:#000;font-style:normal;font-variant:normal;font-weight:400;font-stretch:normal;line-height:0%;font-family:Arial;-inkscape-font-specification:&quot;Arial, Normal&quot;;text-indent:0;text-align:start;text-decoration:none;text-decoration-line:none;text-decoration-style:solid;text-decoration-color:#000;letter-spacing:0;word-spacing:0;text-transform:none;writing-mode:lr-tb;direction:ltr;baseline-shift:baseline;text-anchor:start;white-space:normal;clip-rule:nonzero;display:inline;overflow:visible;visibility:visible;opacity:1;isolation:auto;mix-blend-mode:normal;color-interpolation:sRGB;color-interpolation-filters:linearRGB;solid-color:#000;solid-opacity:1;fill:#010101;fill-opacity:1;fill-rule:nonzero;stroke:#000;stroke-width:1;stroke-linecap:butt;stroke-linejoin:miter;stroke-miterlimit:4;stroke-dasharray:none;stroke-dashoffset:0;stroke-opacity:1;color-rendering:auto;image-rendering:auto;shape-rendering:auto;text-rendering:auto"><tspan x="11.6" y="-910.4" style="font-size:52.5px;line-height:1.25">A</tspan></text><text xml:space="preserve" x="-199.1" y="685" style="color:#000;font-style:normal;font-variant:normal;font-weight:400;font-stretch:normal;line-height:0%;font-family:Arial;-inkscape-font-specification:&quot;Arial, Normal&quot;;text-indent:0;text-align:start;text-decoration:none;text-decoration-line:none;text-decoration-style:solid;text-decoration-color:#000;letter-spacing:0;word-spacing:0;text-transform:none;writing-mode:lr-tb;direction:ltr;baseline-shift:baseline;text-anchor:start;white-space:normal;clip-rule:nonzero;display:inline;overflow:visible;visibility:visible;opacity:1;isolation:auto;mix-blend-mode:normal;color-interpolation:sRGB;color-interpolation-filters:linearRGB;solid-color:#000;solid-opacity:1;fill:#010101;fill-opacity:1;fill-rule:nonzero;stroke:#000;stroke-width:1px;stroke-linecap:butt;stroke-linejoin:miter;stroke-miterlimit:4;stroke-dasharray:none;stroke-dashoffset:0;stroke-opacity:1;color-rendering:auto;image-rendering:auto;shape-rendering:auto;text-rendering:auto" transform="scale(-1)"><tspan x="-199.1" y="685" style="font-size:52.5px;line-height:1.25">A</tspan></text></g></svg>