<svg xmlns="http://www.w3.org/2000/svg" viewBox="0 0 210 315"><g style="display:inline" transform="translate(-3131.169 839.818)"><rect width="209" height="314" x="3131.7" y="-839.3" rx="15" ry="15" style="display:inline;fill:#fdfeee;fill-opacity:1;stroke:none;stroke-width:0;stroke-linecap:butt;stroke-linejoin:round;stroke-miterlimit:4;stroke-dasharray:none;stroke-opacity:1"/><text xml:space="preserve" x="3138.3" y="-799.8" style="font-style:normal;font-weight:400;font-size:16px;line-height:0%;font-family:&quot;Bitstream Vera Sans&quot;;letter-spacing:0;word-spacing:0;display:inline;fill:#fe0000;fill-opacity:1;stroke:#000;stroke-width:1.33333;stroke-opacity:1"><tspan x="3138.3" y="-799.8" style="font-style:italic;font-variant:normal;font-weight:700;font-stretch:normal;font-size:42.6667px;line-height:1.25;font-family:LMMathSymbols9;-inkscape-font-specification:&quot;LMMathSymbols9 Bold Italic&quot;;fill:#fe0000;fill-opacity:1;stroke:#000;stroke-width:1.33333;stroke-opacity:1">J</tspan></text><g style="display:inline"><path d="M8 3.1C7.7-.9.2-8.6 0-10.5-.2-8.5-7.7-1-8 3.1c-.2 2.9 1.7 4 3.4 4 1.8 0 3.4-2.7 3.9-3.3.2.7-1.6 6.7-2.2 6.7h5.8c-.6 0-2.4-6-2.2-6.7.5.5 1.8 3.3 3.9 3.4C6.3 7.2 8.2 6 8 3" style="fill:#000" transform="rotate(45 2498.505 3599.678)scale(4.28257 3.9156)"/></g><text xml:space="preserve" x="3134.8" y="-770.9" style="font-style:normal;font-weight:400;font-size:16px;line-height:0%;font-family:&quot;Bitstream Vera Sans&quot;;letter-spacing:0;word-spacing:0;display:inline;fill:#fe0000;fill-opacity:1;stroke:#000;stroke-width:1.33333;stroke-opacity:1"><tspan x="3134.8" y="-770.9" style="font-style:italic;font-variant:normal;font-weight:700;font-stretch:normal;font-size:51.2px;line-height:1.25;font-family:&quot;URW Chancery L&quot;;-inkscape-font-specification:&quot;URW Chancery L Bold Italic&quot;;fill:#fe0000;fill-opacity:1;stroke:#000;stroke-width:1.33333;stroke-opacity:1">o</tspan></text><text xml:space="preserve" x="3132.6" y="-733.6" style="font-style:normal;font-weight:400;font-size:16px;line-height:0%;font-family:&quot;Bitstream Vera Sans&quot;;letter-spacing:0;word-spacing:0;display:inline;fill:#fe0000;fill-opacity:1;stroke:#000;stroke-width:1.33333;stroke-opacity:1"><tspan x="3132.6" y="-733.6" style="font-style:italic;font-variant:normal;font-weight:700;font-stretch:normal;font-size:51.2px;line-height:1.25;font-family:&quot;URW Chancery L&quot;;-inkscape-font-specification:&quot;URW Chancery L Bold Italic&quot;;fill:#fe0000;fill-opacity:1;stroke:#000;stroke-width:1.33333;stroke-opacity:1">k</tspan></text><text xml:space="preserve" x="3132.6" y="-703.8" style="font-style:normal;font-weight:400;font-size:16px;line-height:0%;font-family:&quot;Bitstream Vera Sans&quot;;letter-spacing:0;word-spacing:0;display:inline;fill:#fe0000;fill-opacity:1;stroke:#000;stroke-width:1.33333;stroke-opacity:1"><tspan x="3132.6" y="-703.8" style="font-style:italic;font-variant:normal;font-weight:700;font-stretch:normal;font-size:51.2px;line-height:1.25;font-family:&quot;URW Chancery L&quot;;-inkscape-font-specification:&quot;URW Chancery L Bold Italic&quot;;fill:#fe0000;fill-opacity:1;stroke:#000;stroke-width:1.33333;stroke-opacity:1">e</tspan></text><text xml:space="preserve" x="3132.1" y="-675.8" style="font-style:normal;font-weight:400;font-size:16px;line-height:0%;font-family:&quot;Bitstream Vera Sans&quot;;letter-spacing:0;word-spacing:0;display:inline;fill:red;fill-opacity:1;stroke:#000;stroke-width:1.33333;stroke-opacity:1"><tspan x="3132.1" y="-675.8" style="font-style:italic;font-variant:normal;font-weight:700;font-stretch:normal;font-size:51.2px;line-height:1.25;font-family:&quot;URW Chancery L&quot;;-inkscape-font-specification:&quot;URW Chancery L Bold Italic&quot;;fill:red;fill-opacity:1;stroke:#000;stroke-width:1.33333;stroke-opacity:1">r</tspan></text><g style="display:inline"><path d="M3.7-9C.4-9 0-5.5 0-5.5S-.4-9-3.7-9C-5.9-9-8-7.4-8-4.5-8-.6-1.4 3.3 0 9 1.4 3.3 8-.6 8-4.5 8-7.5 6-9 3.7-9" style="fill:#df0000" transform="rotate(-45 746.121 -4228.084)scale(4.47717 4.1902)"/></g><g style="display:inline"><path d="M50.3 22.7s2.4-1.9 2.4-4.5c0-1.6-1.4-4.1-4.6-4.1a4.4 4.4 0 0 0-4.5 4c0 2.7 2.4 4.6 2.4 4.6-2.7-2-7.4-.7-7.4 3.5 0 2 1.7 4.3 4.4 4.3 3.1 0 4.5-3.5 4.5-3.5s.4 4-2 6h5.2c-2.3-2-2-6-2-6s1.4 3.5 4.6 3.5c2.7 0 4.3-2.3 4.3-4.3 0-4.2-4.7-5.6-7.3-3.5" style="fill:#000" transform="rotate(225 1547.16 -897.78)scale(4.04607)"/></g><g style="display:inline"><path d="M3.2-4.7A28 28 0 0 1 0-10.5s-1.1 3-3.2 5.8C-5.4-2-8 0-8 0a24 24 0 0 0 8 10.5s1.1-3 3.2-5.8C5.4 2 8 0 8 0S5.4-1.9 3.2-4.7" style="fill:#df0000" transform="rotate(-45 868.826 -4276.076)scale(4.21438)"/></g><text xml:space="preserve" x="-3335.4" y="561.6" style="font-style:normal;font-weight:400;font-size:16px;line-height:0%;font-family:&quot;Bitstream Vera Sans&quot;;letter-spacing:0;word-spacing:0;display:inline;fill:#fe0000;fill-opacity:1;stroke:#000;stroke-width:1.33333;stroke-opacity:1" transform="scale(-1)"><tspan x="-3335.4" y="561.6" style="font-style:italic;font-variant:normal;font-weight:700;font-stretch:normal;font-size:42.6667px;line-height:1.25;font-family:LMMathSymbols9;-inkscape-font-specification:&quot;LMMathSymbols9 Bold Italic&quot;;fill:#fe0000;fill-opacity:1;stroke:#000;stroke-width:1.33333;stroke-opacity:1">J</tspan></text><text xml:space="preserve" x="-3338.9" y="590.6" style="font-style:normal;font-weight:400;font-size:16px;line-height:0%;font-family:&quot;Bitstream Vera Sans&quot;;letter-spacing:0;word-spacing:0;display:inline;fill:#fe0000;fill-opacity:1;stroke:#000;stroke-width:1.33333;stroke-opacity:1" transform="scale(-1)"><tspan x="-3338.9" y="590.6" style="font-style:italic;font-variant:normal;font-weight:700;font-stretch:normal;font-size:51.2px;line-height:1.25;font-family:&quot;URW Chancery L&quot;;-inkscape-font-specification:&quot;URW Chancery L Bold Italic&quot;;fill:#fe0000;fill-opacity:1;stroke:#000;stroke-width:1.33333;stroke-opacity:1">o</tspan></text><text xml:space="preserve" x="-3341.1" y="627.8" style="font-style:normal;font-weight:400;font-size:16px;line-height:0%;font-family:&quot;Bitstream Vera Sans&quot;;letter-spacing:0;word-spacing:0;display:inline;fill:#fe0000;fill-opacity:1;stroke:#000;stroke-width:1.33333;stroke-opacity:1" transform="scale(-1)"><tspan x="-3341.1" y="627.8" style="font-style:italic;font-variant:normal;font-weight:700;font-stretch:normal;font-size:51.2px;line-height:1.25;font-family:&quot;URW Chancery L&quot;;-inkscape-font-specification:&quot;URW Chancery L Bold Italic&quot;;fill:#fe0000;fill-opacity:1;stroke:#000;stroke-width:1.33333;stroke-opacity:1">k</tspan></text><text xml:space="preserve" x="-3341.1" y="657.6" style="font-style:normal;font-weight:400;font-size:16px;line-height:0%;font-family:&quot;Bitstream Vera Sans&quot;;letter-spacing:0;word-spacing:0;display:inline;fill:#fe0000;fill-opacity:1;stroke:#000;stroke-width:1.33333;stroke-opacity:1" transform="scale(-1)"><tspan x="-3341.1" y="657.6" style="font-style:italic;font-variant:normal;font-weight:700;font-stretch:normal;font-size:51.2px;line-height:1.25;font-family:&quot;URW Chancery L&quot;;-inkscape-font-specification:&quot;URW Chancery L Bold Italic&quot;;fill:#fe0000;fill-opacity:1;stroke:#000;stroke-width:1.33333;stroke-opacity:1">e</tspan></text><text xml:space="preserve" x="-3341.5" y="685.7" style="font-style:normal;font-weight:400;font-size:16px;line-height:0%;font-family:&quot;Bitstream Vera Sans&quot;;letter-spacing:0;word-spacing:0;display:inline;fill:#fe0000;fill-opacity:1;stroke:#000;stroke-width:1.33333;stroke-opacity:1" transform="scale(-1)"><tspan x="-3341.5" y="685.7" style="font-style:italic;font-variant:normal;font-weight:700;font-stretch:normal;font-size:51.2px;line-height:1.25;font-family:&quot;URW Chancery L&quot;;-inkscape-font-specification:&quot;URW Chancery L Bold Italic&quot;;fill:#fe0000;fill-opacity:1;stroke:#000;stroke-width:1.33333;stroke-opacity:1">r</tspan></text></g></svg>