<?xml version="1.0" encoding="UTF-8"?>
<svg xmlns="http://www.w3.org/2000/svg" viewBox="0 0 210 315" width="210" height="315">
  <defs>
    <linearGradient id="bg" x1="0" y1="0" x2="0" y2="1">
      <stop offset="0" stop-color="#1a3a7a"/>
      <stop offset="1" stop-color="#0f2355"/>
    </linearGradient>
    <linearGradient id="shine" x1="0" y1="0" x2="1" y2="1">
      <stop offset="0" stop-color="#fff" stop-opacity="0.08"/>
      <stop offset="0.5" stop-color="#fff" stop-opacity="0"/>
      <stop offset="1" stop-color="#fff" stop-opacity="0.04"/>
    </linearGradient>
  </defs>
  <!-- Card base -->
  <rect width="210" height="315" rx="12" ry="12" fill="url(#bg)"/>
  <!-- Inner border -->
  <rect x="10" y="10" width="190" height="295" rx="8" ry="8" fill="none" stroke="#3a6bc7" stroke-width="1.5" stroke-opacity="0.4"/>
  <!-- Inner frame -->
  <rect x="18" y="18" width="174" height="279" rx="6" ry="6" fill="none" stroke="#3a6bc7" stroke-width="0.75" stroke-opacity="0.25"/>
  <!-- Center diamond -->
  <g transform="translate(105, 157.5)" fill="none" stroke="#4a7fd4" stroke-width="1.2" stroke-opacity="0.35">
    <rect x="-40" y="-60" width="80" height="120" rx="4" ry="4" transform="rotate(0)"/>
    <rect x="-28" y="-42" width="56" height="84" rx="3" ry="3"/>
  </g>
  <!-- Corner accents -->
  <g fill="#4a7fd4" fill-opacity="0.3">
    <circle cx="35" cy="35" r="4"/>
    <circle cx="175" cy="35" r="4"/>
    <circle cx="35" cy="280" r="4"/>
    <circle cx="175" cy="280" r="4"/>
  </g>
  <!-- Subtle center emblem -->
  <g transform="translate(105, 157.5)" fill="#4a7fd4" fill-opacity="0.2">
    <polygon points="0,-20 12,10 -12,10"/>
    <polygon points="0,20 12,-10 -12,-10"/>
  </g>
  <!-- Shine overlay -->
  <rect width="210" height="315" rx="12" ry="12" fill="url(#shine)"/>
</svg>
